<?xml version="1.0" encoding="UTF-8"?>
<svg version="1.1" xmlns="http://www.w3.org/2000/svg" width="256" height="256">
<path d="M0 0 C1.6228894 -0.01073296 1.6228894 -0.01073296 3.27856445 -0.02168274 C4.4557605 -0.02437164 5.63295654 -0.02706055 6.8458252 -0.02983093 C8.0936377 -0.03640213 9.3414502 -0.04297333 10.6270752 -0.04974365 C14.75793705 -0.06945789 18.88876009 -0.08114359 23.01965332 -0.09111023 C24.44735228 -0.09516103 25.87505105 -0.09927805 27.30274963 -0.10346031 C34.01593274 -0.12250178 40.72910496 -0.1367319 47.44230986 -0.14507228 C55.16230874 -0.15482446 62.88201935 -0.18109517 70.60191679 -0.22157317 C76.58688696 -0.25186447 82.57177514 -0.26655362 88.55682039 -0.26985329 C92.12260033 -0.27219005 95.68807202 -0.2809681 99.25376892 -0.30631447 C103.24296789 -0.3342133 107.23153447 -0.32972465 111.2208252 -0.32279968 C112.38182739 -0.33560974 113.54282959 -0.3484198 114.73901367 -0.36161804 C126.46306611 -0.28790976 136.81048873 2.0414878 145.29309082 10.51045227 C158.05368319 25.41252813 165.37388569 45.73965611 172.48840332 63.77217102 C172.93675537 64.90856018 173.38510742 66.04494934 173.8470459 67.21577454 C177.7860774 77.40195092 181.57927353 87.63875322 182.92590332 98.52217102 C183.0986377 99.8086554 183.27137207 101.09513977 183.44934082 102.42060852 C183.57532538 107.04327288 183.09392664 111.12902322 180.21887207 114.88935852 C177.00722718 117.34681767 174.63273474 119.14717102 170.55090332 119.14717102 C152.43854704 115.62022132 137.51263893 98.30277578 124.55090332 86.14717102 C124.15000488 87.06756165 123.74910645 87.98795227 123.33605957 88.93623352 C111.49213583 115.55669325 93.71302397 134.41599333 66.80090332 146.33467102 C61.64545518 148.15862018 58.41113837 148.54438492 53.33215332 146.48310852 C51.95543457 145.82181946 51.95543457 145.82181946 50.55090332 145.14717102 C49.31137936 144.59755793 48.071791 144.04809006 46.83215332 143.49873352 C22.40927989 132.29225008 7.85481182 113.97483425 -3.44909668 90.14717102 C-4.11311361 88.81251611 -4.77915424 87.47886143 -5.44909668 86.14717102 C-5.89599854 86.57949036 -6.34290039 87.01180969 -6.80334473 87.45722961 C-38.28354654 117.79716557 -38.28354654 117.79716557 -52.44909668 119.14717102 C-57.56309102 117.56006933 -60.78651438 115.85789356 -63.44909668 111.14717102 C-68.77088104 89.50524795 -53.09319763 62.16676769 -44.44909668 43.14717102 C-44.01629395 42.18971985 -43.58349121 41.23226868 -43.13757324 40.24580383 C-28.36947336 7.76040238 -28.36947336 7.76040238 -14.19909668 2.20967102 C-9.35322294 0.83667346 -5.03991125 0.02298189 0 0 Z " fill="#43CDFD" transform="translate(68.4490966796875,104.85282897949219)"/>
<path d="M0 0 C0.78489807 -0.00686325 1.56979614 -0.0137265 2.378479 -0.02079773 C4.94928559 -0.0389602 7.51947563 -0.03524305 10.09033203 -0.02954102 C11.89340409 -0.0341083 13.69647441 -0.0394155 15.49954224 -0.04542542 C19.27027477 -0.05433614 23.04079529 -0.05195719 26.81152344 -0.04199219 C31.62192985 -0.03051272 36.43160104 -0.05070865 41.24191093 -0.07990932 C44.96363911 -0.09833772 48.68519332 -0.09796556 52.40695572 -0.0922718 C54.17941442 -0.09211936 55.9518855 -0.09809952 57.72430038 -0.11056328 C77.73399276 -0.23145336 77.73399276 -0.23145336 86.12548828 6.26342773 C89.94259251 10.9643907 93.72314453 16.05944474 93.72314453 22.40405273 C94.29162109 22.42983398 94.86009766 22.45561523 95.44580078 22.48217773 C102.46129453 22.99750616 107.00207399 24.60943974 112.03564453 29.77905273 C117.11451776 37.6795222 116.57552157 47.35180854 115.72314453 56.40405273 C114.23992796 62.87627049 111.20935525 66.78315366 105.72314453 70.40405273 C101.59105404 72.21184232 98.21339022 72.61787396 93.72314453 72.40405273 C93.35189453 74.19842773 93.35189453 74.19842773 92.97314453 76.02905273 C91.22277788 82.92112143 87.48256521 87.3060034 81.72314453 91.40405273 C76.31683073 94.0453532 71.40835425 94.84526395 65.44628906 94.80810547 C64.66139099 94.81496872 63.87649292 94.82183197 63.06781006 94.8289032 C60.49700347 94.84706567 57.92681343 94.84334852 55.35595703 94.83764648 C53.55288497 94.84221377 51.74981465 94.84752097 49.94674683 94.85353088 C46.17601429 94.86244161 42.40549377 94.86006266 38.63476562 94.85009766 C33.82435921 94.83861818 29.01468802 94.85881412 24.20437813 94.88801479 C20.48264995 94.90644319 16.76109574 94.90607103 13.03933334 94.90037727 C11.26687464 94.90022483 9.49440356 94.90620499 7.72198868 94.91866875 C-12.28770369 95.03955882 -12.28770369 95.03955882 -20.67919922 88.54467773 C-24.49630345 83.84371477 -28.27685547 78.74866073 -28.27685547 72.40405273 C-29.28748047 72.32155273 -30.29810547 72.23905273 -31.33935547 72.15405273 C-36.80716899 71.35712445 -40.76433427 68.95745289 -44.58935547 65.02905273 C-49.6682287 57.12858327 -49.12923251 47.45629693 -48.27685547 38.40405273 C-46.7936389 31.93183498 -43.76306619 28.02495181 -38.27685547 24.40405273 C-34.57049141 22.84737983 -32.33376087 22.40405273 -28.27685547 22.40405273 C-28.02935547 21.20780273 -27.78185547 20.01155273 -27.52685547 18.77905273 C-25.77648882 11.88698404 -22.03627615 7.50210207 -16.27685547 3.40405273 C-10.87054167 0.76275227 -5.96206519 -0.03715848 0 0 Z " fill="#BBE9F8" transform="translate(95.27685546875,2.595947265625)"/>
<path d="M0 0 C0.78489807 -0.00686325 1.56979614 -0.0137265 2.378479 -0.02079773 C4.94928559 -0.0389602 7.51947563 -0.03524305 10.09033203 -0.02954102 C11.89340409 -0.0341083 13.69647441 -0.0394155 15.49954224 -0.04542542 C19.27027477 -0.05433614 23.04079529 -0.05195719 26.81152344 -0.04199219 C31.62192985 -0.03051272 36.43160104 -0.05070865 41.24191093 -0.07990932 C44.96363911 -0.09833772 48.68519332 -0.09796556 52.40695572 -0.0922718 C54.17941442 -0.09211936 55.9518855 -0.09809952 57.72430038 -0.11056328 C77.73399276 -0.23145336 77.73399276 -0.23145336 86.12548828 6.26342773 C89.94259251 10.9643907 93.72314453 16.05944474 93.72314453 22.40405273 C94.29162109 22.42983398 94.86009766 22.45561523 95.44580078 22.48217773 C102.46129453 22.99750616 107.00207399 24.60943974 112.03564453 29.77905273 C117.11451776 37.6795222 116.57552157 47.35180854 115.72314453 56.40405273 C114.23992796 62.87627049 111.20935525 66.78315366 105.72314453 70.40405273 C101.59105404 72.21184232 98.21339022 72.61787396 93.72314453 72.40405273 C93.35189453 74.19842773 93.35189453 74.19842773 92.97314453 76.02905273 C91.22277788 82.92112143 87.48256521 87.3060034 81.72314453 91.40405273 C76.31683073 94.0453532 71.40835425 94.84526395 65.44628906 94.80810547 C64.66139099 94.81496872 63.87649292 94.82183197 63.06781006 94.8289032 C60.49700347 94.84706567 57.92681343 94.84334852 55.35595703 94.83764648 C53.55288497 94.84221377 51.74981465 94.84752097 49.94674683 94.85353088 C46.17601429 94.86244161 42.40549377 94.86006266 38.63476562 94.85009766 C33.82435921 94.83861818 29.01468802 94.85881412 24.20437813 94.88801479 C20.48264995 94.90644319 16.76109574 94.90607103 13.03933334 94.90037727 C11.26687464 94.90022483 9.49440356 94.90620499 7.72198868 94.91866875 C-12.28770369 95.03955882 -12.28770369 95.03955882 -20.67919922 88.54467773 C-24.49630345 83.84371477 -28.27685547 78.74866073 -28.27685547 72.40405273 C-29.28748047 72.32155273 -30.29810547 72.23905273 -31.33935547 72.15405273 C-36.80716899 71.35712445 -40.76433427 68.95745289 -44.58935547 65.02905273 C-49.6682287 57.12858327 -49.12923251 47.45629693 -48.27685547 38.40405273 C-46.7936389 31.93183498 -43.76306619 28.02495181 -38.27685547 24.40405273 C-34.57049141 22.84737983 -32.33376087 22.40405273 -28.27685547 22.40405273 C-28.02935547 21.20780273 -27.78185547 20.01155273 -27.52685547 18.77905273 C-25.77648882 11.88698404 -22.03627615 7.50210207 -16.27685547 3.40405273 C-10.87054167 0.76275227 -5.96206519 -0.03715848 0 0 Z M-10.27685547 12.40405273 C-10.96392578 12.67475586 -11.65099609 12.94545898 -12.35888672 13.22436523 C-14.86092637 14.76329797 -15.42464258 16.20975457 -16.52685547 18.90405273 C-16.86201172 19.69811523 -17.19716797 20.49217773 -17.54248047 21.31030273 C-18.38718137 23.34879809 -18.38718137 23.34879809 -18.27685547 25.40405273 C-17.61685547 25.40405273 -16.95685547 25.40405273 -16.27685547 25.40405273 C-16.39649999 30.31140158 -16.52081348 35.2186037 -16.64916992 40.12573242 C-16.69207223 41.78976352 -16.73377129 43.45382615 -16.77416992 45.11791992 C-17.00470186 54.57826763 -17.323207 63.98223988 -18.27685547 73.40405273 C-17.61685547 73.40405273 -16.95685547 73.40405273 -16.27685547 73.40405273 C-15.96748047 74.18780273 -15.65810547 74.97155273 -15.33935547 75.77905273 C-14.34810508 78.32735401 -14.34810508 78.32735401 -13.27685547 80.40405273 C-12.61685547 80.40405273 -11.95685547 80.40405273 -11.27685547 80.40405273 C-11.27685547 81.06405273 -11.27685547 81.72405273 -11.27685547 82.40405273 C-9.46504142 82.59806907 -7.65237014 82.78409648 -5.83935547 82.96655273 C-4.83001953 83.0709668 -3.82068359 83.17538086 -2.78076172 83.28295898 C-1.54132813 83.34290039 -1.54132813 83.34290039 -0.27685547 83.40405273 C0.05314453 83.07405273 0.38314453 82.74405273 0.72314453 82.40405273 C2.74099755 82.28551423 4.76296801 82.23663496 6.78417969 82.21459961 C8.73223007 82.18952332 8.73223007 82.18952332 10.71963501 82.16394043 C11.76815077 82.15391747 11.76815077 82.15391747 12.83784866 82.14369202 C15.02425131 82.12268702 17.21050499 82.09565639 19.39682007 82.0670166 C24.04720396 82.00721799 28.69765867 81.95520832 33.34814453 81.90405273 C38.71680569 81.84470363 44.08539582 81.78213839 49.4539299 81.71217346 C51.60025509 81.68575752 53.7465878 81.66483802 55.89297485 81.64416504 C57.21058807 81.62744751 58.52820129 81.61072998 59.88574219 81.59350586 C61.03966461 81.58097778 62.19358704 81.56844971 63.38247681 81.55554199 C70.29109847 81.48362197 70.29109847 81.48362197 76.03564453 78.27905273 C79.59017184 72.22319139 80.02368566 66.299819 79.98876953 59.47045898 C79.99068298 58.63369125 79.99259644 57.79692352 79.99456787 56.93479919 C79.99592211 55.17414039 79.99227917 53.41347135 79.98388672 51.65283203 C79.97318982 48.97787726 79.98380094 46.30359606 79.99658203 43.62866211 C79.99526004 41.9092596 79.99269682 40.18985751 79.98876953 38.47045898 C79.99281799 37.68063126 79.99686646 36.89080353 80.0010376 36.07704163 C79.95767179 30.86562867 79.14754043 26.42036014 77.72314453 21.40405273 C77.53609955 20.33103661 77.53609955 20.33103661 77.34527588 19.23634338 C77.03732086 18.32935951 77.03732086 18.32935951 76.72314453 17.40405273 C75.73314453 17.07405273 74.74314453 16.74405273 73.72314453 16.40405273 C73.22814453 15.41405273 73.22814453 15.41405273 72.72314453 14.40405273 C69.29276159 13.26059175 66.66682703 13.28393674 63.04858398 13.29052734 C62.37514954 13.29038132 61.70171509 13.29023529 61.00787354 13.29008484 C58.78402475 13.29078098 56.56025992 13.29855941 54.33642578 13.30639648 C52.7937169 13.30826172 51.25100742 13.30968513 49.70829773 13.3106842 C45.64930585 13.31450104 41.5903498 13.32432422 37.53137207 13.33538818 C33.38892094 13.34562021 29.24646403 13.35018567 25.10400391 13.35522461 C16.97703435 13.36594723 8.8500939 13.38301366 0.72314453 13.40405273 C0.39314453 12.08405273 0.06314453 10.76405273 -0.27685547 9.40405273 C-4.17734428 9.40405273 -6.74640292 10.79367087 -10.27685547 12.40405273 Z " fill="#4ACDFC" transform="translate(95.27685546875,2.595947265625)"/>
<path d="M0 0 C5.52845106 0.6681649 10.9825507 0.80296981 16.546875 0.86303711 C18.65625439 0.89595998 20.76562929 0.92917188 22.875 0.96264648 C26.15296536 1.0100287 29.4309105 1.0545514 32.70898438 1.09375 C35.90512391 1.13372568 39.10092601 1.18517954 42.296875 1.23803711 C43.26383301 1.24645126 44.23079102 1.25486542 45.22705078 1.26353455 C53.77158319 1.41677122 64.5348089 1.88774645 71.421875 7.61694336 C75.08901236 13.0062886 76.0387162 16.87788566 76.0234375 23.33178711 C76.03200775 24.1463588 76.040578 24.96093048 76.04940796 25.80018616 C76.06083409 27.5137258 76.06193975 29.2273624 76.05322266 30.94091797 C76.04689814 33.54491497 76.0938836 36.14436603 76.14453125 38.74780273 C76.25833372 53.77496768 76.25833372 53.77496768 71.00537109 59.34179688 C66.93225956 62.62176319 64.57497421 62.81139993 59.421875 62.61694336 C59.421875 61.95694336 59.421875 61.29694336 59.421875 60.61694336 C58.865 60.7497168 58.308125 60.88249023 57.734375 61.01928711 C48.49540783 63.1573589 39.89191239 63.75899392 30.421875 63.61694336 C30.421875 64.27694336 30.421875 64.93694336 30.421875 65.61694336 C21.70495364 66.46295306 13.04993422 66.7254502 4.296875 66.74194336 C3.28939209 66.74645508 2.28190918 66.7509668 1.24389648 66.75561523 C0.28942627 66.75368164 -0.66504395 66.75174805 -1.6484375 66.74975586 C-2.50195801 66.74862793 -3.35547852 66.7475 -4.23486328 66.74633789 C-7.48866595 66.56666344 -9.73343008 66.34681441 -12.25570679 64.16740417 C-16.9359675 58.32799861 -17.43795789 53.63538407 -17.3046875 46.29272461 C-17.30568451 45.22829636 -17.30668152 44.1638681 -17.30770874 43.06718445 C-17.30304877 40.82905566 -17.28371864 38.59091428 -17.25048828 36.35302734 C-17.20311859 32.92898025 -17.20940187 29.50803387 -17.22265625 26.08374023 C-17.21150691 23.90338315 -17.19728978 21.72303914 -17.1796875 19.54272461 C-17.18151031 18.52181229 -17.18333313 17.50089996 -17.18521118 16.4490509 C-17.09635083 11.99849942 -17.04190151 9.36240765 -14.65234375 5.52148438 C-10.20620519 1.43905418 -6.14449006 -0.86550246 0 0 Z " fill="#C0EAF9" transform="translate(97.578125,126.383056640625)"/>
<path d="M0 0 C11.72052516 0.43815047 19.83114661 3.4529681 28 12 C33.48527459 18.91642251 37.48592278 26.42308691 41.25 34.375 C42.08035767 36.11547607 42.08035767 36.11547607 42.92749023 37.89111328 C61.85154338 77.98050635 61.85154338 77.98050635 64.375 98.375 C64.54773438 99.66148437 64.72046875 100.94796875 64.8984375 102.2734375 C65.02442206 106.89610185 64.54302332 110.9818522 61.66796875 114.7421875 C58.45632386 117.19964665 56.08183142 119 52 119 C39.66026948 116.59713158 29.84455465 107.5959091 20.71435547 99.50439453 C18.9252187 97.93437734 17.10698612 96.40298983 15.28515625 94.87109375 C14.08474904 93.83210068 12.88549642 92.79177188 11.6875 91.75 C10.83309326 91.04387573 10.83309326 91.04387573 9.96142578 90.32348633 C7.3123865 87.96563601 6.07582679 86.45553958 5.48828125 82.92578125 C6.06086409 78.5330656 6.87379116 74.23670151 7.77929688 69.90136719 C12.43582184 47.52102294 14.19689777 23.89177267 3 3 C1.45409126 1.2218787 1.45409126 1.2218787 0 0 Z " fill="#4E67AF" transform="translate(187,105)"/>
<path d="M0 0 C-0.59425781 0.48082031 -1.18851563 0.96164063 -1.80078125 1.45703125 C-4.77265172 4.89342144 -5.83149775 8.40112407 -7.1875 12.6875 C-7.44724609 13.45255859 -7.70699219 14.21761719 -7.97460938 15.00585938 C-14.24206669 34.22930082 -11.88005347 57.11089082 -6.68359375 76.28125 C-5.23263877 82.05190523 -5.23263877 82.05190523 -5 85 C-6.15234375 86.87109375 -6.15234375 86.87109375 -7.9375 88.4375 C-8.59363281 89.02917969 -9.24976563 89.62085938 -9.92578125 90.23046875 C-10.61027344 90.81441406 -11.29476562 91.39835937 -12 92 C-12.59167969 92.53238281 -13.18335938 93.06476563 -13.79296875 93.61328125 C-15.06815209 94.75251754 -16.3570727 95.8764853 -17.65625 96.98828125 C-19.42465411 98.50616144 -21.17099364 100.04980209 -22.90625 101.60546875 C-41.52171909 118.10848304 -41.52171909 118.10848304 -53 119 C-58.11399434 117.41289831 -61.3374177 115.71072253 -64 111 C-69.32178436 89.35807693 -53.64410096 62.01959667 -45 43 C-44.56719727 42.04254883 -44.13439453 41.08509766 -43.68847656 40.09863281 C-28.92037668 7.61323136 -28.92037668 7.61323136 -14.75 2.0625 C-9.61054853 0.60632208 -5.35631154 -0.12456538 0 0 Z " fill="#4E67AE" transform="translate(69,105)"/>
<path d="M0 0 C7.12136428 0 12.14642407 0.67827354 17.61328125 5.390625 C24.31654987 12.90461342 23.67560475 22.49604349 23.1953125 31.92578125 C22.64843225 37.73364947 20.37400728 42.02394067 16.125 45.9375 C10.3645038 49.73942749 7.07004241 50 0 50 C0 33.5 0 17 0 0 Z " fill="#4A63AB" transform="translate(188,25)"/>
<path d="M0 0 C0 15.84 0 31.68 0 48 C-6.09567122 49.21913424 -8.8154392 48.13331896 -14 45 C-18.32519178 41.27929285 -20.60145842 36.64531529 -21.22143555 30.97460938 C-22.22268361 11.89752475 -22.22268361 11.89752475 -15.609375 4.4296875 C-10.60446987 -0.18009354 -6.56338749 -1.3126775 0 0 Z " fill="#4961AA" transform="translate(68,26)"/>
<path d="M0 0 C0.71969467 -0.00287018 1.43938934 -0.00574036 2.18089294 -0.00869751 C3.69799591 -0.01073396 5.21512538 -0.00523336 6.73217773 0.00732422 C9.05446948 0.02340893 11.37502724 0.00745096 13.69726562 -0.01171875 C15.17318092 -0.0097367 16.64909514 -0.00589382 18.125 0 C19.16570396 -0.00910904 19.16570396 -0.00910904 20.22743225 -0.0184021 C23.07802872 0.02322669 25.05581702 0.1077535 27.46850586 1.70068359 C29.24192941 4.63068772 28.24936371 7.21152612 27.49609375 10.3984375 C25.03649053 12.85804072 23.6718011 12.63481301 20.31507874 12.65068054 C19.61297775 12.64349503 18.91087677 12.63630951 18.1875 12.62890625 C17.46497543 12.62844803 16.74245087 12.62798981 15.99803162 12.6275177 C14.46896728 12.62449512 12.93990603 12.61660861 11.41088867 12.60424805 C9.07134066 12.58603672 6.7321895 12.58373807 4.39257812 12.58398438 C2.90754866 12.57906729 1.42252189 12.57323814 -0.0625 12.56640625 C-1.11261513 12.56473701 -1.11261513 12.56473701 -2.1839447 12.56303406 C-5.23002804 12.53331926 -7.59040903 12.36960324 -10.50390625 11.3984375 C-11.91832499 8.56960003 -11.82290957 6.52467005 -11.50390625 3.3984375 C-8.19278254 -0.16032969 -4.57326422 -0.04014585 0 0 Z " fill="#9DEEFE" transform="translate(119.50390625,205.6015625)"/>
<path d="M0 0 C3.56816187 1.37629101 6.28414563 3.28414563 9 6 C9.375 8.9375 9.375 8.9375 9 12 C6.84910944 14.3898784 5.562305 14.93305893 2.375 15.3125 C0 15 0 15 -2 13 C-6.05261287 12.65509678 -7.54754176 12.69836118 -11 15 C-13.5 15.375 -13.5 15.375 -16 15 C-18.24805646 12.90698191 -18.92897486 11.61555126 -19.28125 8.5625 C-19 6 -19 6 -17.63671875 4.19921875 C-11.94243301 -0.21699083 -7.12332117 -1.27202164 0 0 Z " fill="#37455A" transform="translate(153,41)"/>
<path d="M0 0 C3.30413243 1.37248578 5.47775994 3.47775994 8 6 C7.8125 9.5 7.8125 9.5 7 13 C3.77626323 15.14915785 2.73296326 15.38286803 -1 15 C-1.66 14.34 -2.32 13.68 -3 13 C-7.05261287 12.65509678 -8.54754176 12.69836118 -12 15 C-15.0625 14.8125 -15.0625 14.8125 -18 14 C-20.15828034 10.76257949 -20.48900351 9.75484835 -20 6 C-15.08587326 -0.66297773 -7.65709245 -1.2905212 0 0 Z " fill="#394554" transform="translate(114,41)"/>
<path d="M0 0 C0.99 0.33 1.98 0.66 3 1 C2.40138258 3.35171131 1.73075648 5.6859378 1 8 C0.01 8.495 0.01 8.495 -1 9 C-0.83886719 9.74765625 -0.67773438 10.4953125 -0.51171875 11.265625 C0.19659788 16.43471427 0.18426322 21.53877992 0.1875 26.75 C0.19974609 27.80316406 0.21199219 28.85632813 0.22460938 29.94140625 C0.22654297 30.94558594 0.22847656 31.94976562 0.23046875 32.984375 C0.23457764 33.89928711 0.23868652 34.81419922 0.24291992 35.75683594 C0 38 0 38 -2 40 C-7.58055647 30.45904862 -8.9966552 19.79881658 -6.2109375 8.91796875 C-4.62955276 5.27836953 -2.89979068 2.71699585 0 0 Z " fill="#6780C8" transform="translate(54,29)"/>
<path d="M0 0 C0.97582031 0.03609375 1.95164062 0.0721875 2.95703125 0.109375 C4.06111328 0.17898437 4.06111328 0.17898437 5.1875 0.25 C3.1875 2.25 3.1875 2.25 1.19921875 2.34765625 C0.43222656 2.33605469 -0.33476563 2.32445313 -1.125 2.3125 C-3.96691195 2.59486946 -5.34034582 2.77548505 -7.375 4.8203125 C-14.07809781 16.17368441 -15.42911461 28.98040953 -15.1875 41.875 C-15.18621094 43.18984375 -15.18492188 44.5046875 -15.18359375 45.859375 C-15.10216587 54.96120244 -14.58327429 63.93767713 -11.6875 72.625 C-10.6891295 75.62011149 -10.66315702 78.11379752 -10.8125 81.25 C-13.55909677 78.50340323 -13.98905133 75.4150652 -14.875 71.75 C-15.04837891 71.0796875 -15.22175781 70.409375 -15.40039062 69.71875 C-20.51631683 49.01983018 -19.88310835 23.75063604 -10.8125 4.25 C-7.32201784 0.58203569 -5.00999892 -0.24144573 0 0 Z " fill="#9AD8F5" transform="translate(74.8125,104.75)"/>
<path d="M0 0 C0 0.33 0 0.66 0 1 C-0.78503906 1.07476562 -1.57007812 1.14953125 -2.37890625 1.2265625 C-9.38441757 2.10332588 -14.49757609 3.27361619 -19 9 C-19.89762107 11.69286321 -20.13035521 13.26122405 -20.14526367 16.02490234 C-20.15164352 16.82938812 -20.15802338 17.6338739 -20.16459656 18.46273804 C-20.16570938 19.32839386 -20.1668222 20.19404968 -20.16796875 21.0859375 C-20.17129715 21.97987213 -20.17462555 22.87380676 -20.17805481 23.79483032 C-20.18311739 25.68613165 -20.18546334 27.5774419 -20.18530273 29.46875 C-20.18748633 32.35692133 -20.20564111 35.2447089 -20.22460938 38.1328125 C-20.22754404 39.97135286 -20.22952835 41.80989504 -20.23046875 43.6484375 C-20.23765427 44.51004486 -20.24483978 45.37165222 -20.25224304 46.2593689 C-20.2356007 50.64515634 -20.01203307 54.00067392 -18 58 C-17.7525 58.721875 -17.505 59.44375 -17.25 60.1875 C-15.30825806 63.00302582 -13.30511712 63.15042 -10 64 C-6.37924023 64.37063178 -2.76173883 64.50673207 0.875 64.625 C1.84953125 64.66367188 2.8240625 64.70234375 3.828125 64.7421875 C6.2185672 64.83593033 8.60901244 64.9216383 11 65 C11 65.33 11 65.66 11 66 C7.2500163 66.02905924 3.50006163 66.04681874 -0.25 66.0625 C-1.84521484 66.07506836 -1.84521484 66.07506836 -3.47265625 66.08789062 C-4.49746094 66.09111328 -5.52226563 66.09433594 -6.578125 66.09765625 C-7.52075195 66.10289307 -8.46337891 66.10812988 -9.43457031 66.11352539 C-12.78665567 65.96518891 -15.08131605 65.79380236 -17.67758179 63.55046082 C-22.3578425 57.71105525 -22.85983289 53.01844071 -22.7265625 45.67578125 C-22.72755951 44.611353 -22.72855652 43.54692474 -22.72958374 42.45024109 C-22.72492377 40.2121123 -22.70559364 37.97397092 -22.67236328 35.73608398 C-22.62499359 32.31203689 -22.63127687 28.89109051 -22.64453125 25.46679688 C-22.63338191 23.2864398 -22.61916478 21.10609578 -22.6015625 18.92578125 C-22.60338531 17.90486893 -22.60520813 16.8839566 -22.60708618 15.83210754 C-22.51822583 11.38155606 -22.46377651 8.74546429 -20.07421875 4.90454102 C-13.73271707 -0.91820552 -8.33618538 -1.57157593 0 0 Z " fill="#88DDF0" transform="translate(103,127)"/>
<path d="M0 0 C1.37562854 1.28965176 2.70766393 2.62689293 4 4 C4 4.66 4 5.32 4 6 C4.66 6 5.32 6 6 6 C7.25 12.625 7.25 12.625 5 16 C4.7003756 18.17200122 4.7003756 18.17200122 4.74462891 20.59155273 C4.73419052 21.98330971 4.73419052 21.98330971 4.72354126 23.40318298 C4.72453827 24.40321854 4.72553528 25.40325409 4.7265625 26.43359375 C4.70627604 28.54753136 4.68542531 30.66146362 4.6640625 32.77539062 C4.64143898 36.11112994 4.62498396 39.44665813 4.61914062 42.7824707 C4.60963496 45.99990071 4.57588208 49.21637676 4.5390625 52.43359375 C4.54410797 53.43160507 4.54915344 54.42961639 4.55435181 55.45787048 C4.45574081 62.37969583 4.45574081 62.37969583 2.09130859 65.59790039 C-0.93052163 67.62386012 -2.57676332 68.12404455 -6.17431641 68.11352539 C-7.46542831 68.11341209 -7.46542831 68.11341209 -8.78262329 68.11329651 C-9.71287323 68.10813522 -10.64312317 68.10297394 -11.6015625 68.09765625 C-12.55316254 68.0962413 -13.50476257 68.09482635 -14.48519897 68.09336853 C-17.53183097 68.08776012 -20.57839013 68.07520619 -23.625 68.0625 C-25.68749894 68.05748608 -27.74999903 68.05292299 -29.8125 68.04882812 C-34.87502817 68.03778796 -39.93750173 68.02051767 -45 68 C-45 67.67 -45 67.34 -45 67 C-43.13081909 67.00169189 -43.13081909 67.00169189 -41.22387695 67.00341797 C-36.59223099 66.99974177 -31.96162535 66.95690545 -27.33032227 66.90234375 C-25.3274608 66.88419631 -23.32447421 66.87661297 -21.3215332 66.87988281 C-18.43863368 66.88274354 -15.55832201 66.84739274 -12.67578125 66.8046875 C-11.78288895 66.81378143 -10.88999664 66.82287537 -9.970047 66.83224487 C-5.58291363 66.73010788 -3.53502091 66.39609588 0.06982422 63.72729492 C3.3118679 58.94158294 2.65227516 53.10497258 2.55859375 47.55859375 C2.55626236 46.35815933 2.55393097 45.15772491 2.55152893 43.9209137 C2.54180344 41.38836541 2.52004436 38.85583849 2.48706055 36.32348633 C2.43763075 32.4477517 2.42557671 28.57328712 2.41992188 24.69726562 C2.40583612 22.2343615 2.38963182 19.77146839 2.37109375 17.30859375 C2.36573105 16.15016464 2.36036835 14.99173553 2.35484314 13.79820251 C2.33885574 12.71680496 2.32286835 11.63540741 2.30639648 10.52124023 C2.29575668 9.57337143 2.28511688 8.62550262 2.27415466 7.64891052 C1.9785522 4.79276917 1.18481555 2.60303318 0 0 Z " fill="#2BB2F0" transform="translate(173,17)"/>
<path d="M0 0 C1.72774308 -0.10892951 3.45750948 -0.18601092 5.1875 -0.25 C6.15042969 -0.29640625 7.11335937 -0.3428125 8.10546875 -0.390625 C11.91333571 0.12325718 13.36101736 1.22235895 16 4 C18.21728099 8.81843234 19.57949085 13.89860948 21 19 C21.25007813 19.8765625 21.50015625 20.753125 21.7578125 21.65625 C24.45122217 33.34033704 24.03512636 47.21254811 22 59 C21.67 59 21.34 59 21 59 C20.97494385 58.00145996 20.9498877 57.00291992 20.92407227 55.97412109 C20.82951692 52.25036981 20.729416 48.52678426 20.62768555 44.80322266 C20.58451795 43.19518933 20.54283099 41.58711552 20.50268555 39.97900391 C20.44453994 37.66035795 20.38097609 35.34191239 20.31640625 33.0234375 C20.29969376 32.31069672 20.28298126 31.59795593 20.26576233 30.86361694 C20.14739436 26.82655494 19.76231929 22.96623061 19 19 C18.34 19 17.68 19 17 19 C15.66416101 14.15758367 14.74671881 10.06562383 15 5 C14.01 5.33 13.02 5.66 12 6 C12 5.34 12 4.68 12 4 C10.7625 3.896875 9.525 3.79375 8.25 3.6875 C4.64372883 3.3869774 2.76638259 2.3240106 0 0 Z " fill="#3496E7" transform="translate(176,105)"/>
<path d="M0 0 C0.66 0 1.32 0 2 0 C7.31897943 8.9757778 7.75177578 20.0018345 5.234375 30.05859375 C3.60744141 33.99034993 1.86798589 36.9278647 -2 39 C-1.67 36.03 -1.34 33.06 -1 30 C-0.34 30 0.32 30 1 30 C0.67 28.68 0.34 27.36 0 26 C0.66 26 1.32 26 2 26 C2.33 20.39 2.66 14.78 3 9 C2.01 9.33 1.02 9.66 0 10 C-1.125 2.25 -1.125 2.25 0 0 Z M-2 10 C-1.01 10.495 -1.01 10.495 0 11 C-0.66 12.32 -1.32 13.64 -2 15 C-2 13.35 -2 11.7 -2 10 Z " fill="#7692D8" transform="translate(205,32)"/>
<path d="M0 0 C0.495 1.98 0.495 1.98 1 4 C-0.05153748 4.99093014 -1.11682846 5.96727525 -2.1875 6.9375 C-2.77917969 7.48277344 -3.37085938 8.02804688 -3.98046875 8.58984375 C-8.38886103 11.66804416 -13.3686155 11.08252448 -18.5625 11 C-22.63020275 10.93549728 -26.08438952 10.99178892 -30 12 C-32.24907152 12.06790675 -34.50001605 12.08499984 -36.75 12.0625 C-37.92046875 12.05347656 -39.0909375 12.04445312 -40.296875 12.03515625 C-41.18890625 12.02355469 -42.0809375 12.01195312 -43 12 C-43 11.01 -43 10.02 -43 9 C-42.44127197 8.94465088 -41.88254395 8.88930176 -41.30688477 8.83227539 C-38.72536879 8.57622865 -36.14393436 8.3193682 -33.5625 8.0625 C-32.24475586 7.93198242 -32.24475586 7.93198242 -30.90039062 7.79882812 C-25.2622785 7.2370974 -19.63025339 6.63576615 -14 6 C-14 6.66 -14 7.32 -14 8 C-9.66053508 7.74473736 -7.52511821 7.45510245 -4.1875 4.5625 C-3.465625 3.716875 -2.74375 2.87125 -2 2 C-1.34 1.34 -0.68 0.68 0 0 Z " fill="#7DE0FD" transform="translate(171,181)"/>
<path d="M0 0 C3.54170145 0.24709545 5.69455366 0.79543579 8.66333008 2.78369141 C12.23272898 7.69678942 11.73506858 12.34325071 11.69921875 18.2734375 C11.70637405 19.47054352 11.71352936 20.66764954 11.72090149 21.90103149 C11.72867945 24.43108373 11.72366454 26.96120304 11.70678711 29.49121094 C11.68760026 33.35481111 11.7269113 37.21479644 11.77148438 41.078125 C11.77177481 43.53906464 11.76863281 46.00000756 11.76171875 48.4609375 C11.77700119 49.61218109 11.79228363 50.76342468 11.80802917 51.94955444 C11.71652789 58.27592089 11.11472091 62.18100628 6.71296692 66.86685181 C3.5252142 68.97558852 0.69469972 68.44591204 -3 68 C-3 67.67 -3 67.34 -3 67 C-0.69 67 1.62 67 4 67 C7.84961923 59.89301065 9.45254484 53.88921576 9.328125 45.8984375 C9.32625183 45.05834137 9.32437866 44.21824524 9.32244873 43.35269165 C9.31576942 41.58957912 9.30193798 39.82648036 9.28125 38.06347656 C9.25000592 35.37550961 9.24026142 32.68813094 9.234375 30 C9.22520636 28.27863873 9.21483104 26.55728338 9.203125 24.8359375 C9.19887512 24.03892426 9.19462524 23.24191101 9.19024658 22.42074585 C9.13615463 18.1725999 8.79338245 14.18870957 8 10 C8 9.34 8 8.68 8 8 C7.34 7.67 6.68 7.34 6 7 C6.33 6.01 6.66 5.02 7 4 C5.68 3.67 4.36 3.34 3 3 C3 2.34 3 1.68 3 1 C2.01 0.67 1.02 0.34 0 0 Z " fill="#73CEFE" transform="translate(165,16)"/>
<path d="M0 0 C0.33 0 0.66 0 1 0 C1.06058594 0.78246094 1.12117187 1.56492187 1.18359375 2.37109375 C1.26738281 3.38300781 1.35117188 4.39492187 1.4375 5.4375 C1.51871094 6.44683594 1.59992188 7.45617187 1.68359375 8.49609375 C1.73211468 10.93640779 1.73211468 10.93640779 3 12 C3.09953703 13.46995535 3.13080388 14.94464859 3.1328125 16.41796875 C3.13506836 17.33674805 3.13732422 18.25552734 3.13964844 19.20214844 C3.13481445 20.18731445 3.12998047 21.17248047 3.125 22.1875 C3.12016602 23.18168945 3.11533203 24.17587891 3.11035156 25.20019531 C3.08659374 28.13381185 3.04812905 31.06668821 3 34 C2.98743164 34.7852002 2.97486328 35.57040039 2.96191406 36.37939453 C2.9178209 38.33704103 2.83567596 40.29373222 2.75 42.25 C2.70359375 43.32765625 2.6571875 44.4053125 2.609375 45.515625 C2.40828125 46.33546875 2.2071875 47.1553125 2 48 C0.68 48.66 -0.64 49.32 -2 50 C-2.33 55.94 -2.66 61.88 -3 68 C-3.66 68 -4.32 68 -5 68 C-5.3226397 62.39413513 -4.3651386 57.38285742 -3.22119141 51.90039062 C0.21608144 35.39589569 1.27922588 19.48929725 -0.87890625 2.73046875 C-0.91886719 2.15941406 -0.95882812 1.58835937 -1 1 C-0.67 0.67 -0.34 0.34 0 0 Z " fill="#335EA9" transform="translate(198,123)"/>
<path d="M0 0 C0.495 1.485 0.495 1.485 1 3 C1.99 3.66 2.98 4.32 4 5 C4.38095093 7.01135254 4.38095093 7.01135254 4.38818359 9.50976562 C4.39764008 10.44413452 4.40709656 11.37850342 4.4168396 12.34118652 C4.41076691 13.35265747 4.40469421 14.36412842 4.3984375 15.40625 C4.40130768 16.44189087 4.40417786 17.47753174 4.40713501 18.54455566 C4.40917895 20.73690334 4.40362612 22.92926911 4.39111328 25.12158203 C4.37506479 28.48641556 4.39095136 31.8500478 4.41015625 35.21484375 C4.40817388 37.3411485 4.40433033 39.46745249 4.3984375 41.59375 C4.40451019 42.60522095 4.41058289 43.61669189 4.4168396 44.65881348 C4.40738312 45.59318237 4.39792664 46.52755127 4.38818359 47.49023438 C4.38579681 48.31471069 4.38341003 49.13918701 4.38095093 49.98864746 C4.25523712 50.6523938 4.12952332 51.31614014 4 52 C3.01 52.66 2.02 53.32 1 54 C1.01332367 53.15554825 1.01332367 53.15554825 1.0269165 52.29403687 C1.1155807 46.42155129 1.1758131 40.54925664 1.21972656 34.67626953 C1.23981107 32.48608676 1.26708417 30.29595741 1.30175781 28.10595703 C1.35041409 24.95331624 1.37300078 21.80138596 1.390625 18.6484375 C1.41127014 17.67321136 1.43191528 16.69798523 1.45318604 15.69320679 C1.45512585 9.78305093 0.89002721 6.52452585 -3 2 C-7.3074101 -1.78529978 -11.01961261 -2.14470432 -16.63671875 -2.31640625 C-18.58481445 -2.37924805 -18.58481445 -2.37924805 -20.57226562 -2.44335938 C-21.94400761 -2.48316987 -23.31575244 -2.52288216 -24.6875 -2.5625 C-26.07097645 -2.60570835 -27.45444027 -2.64932339 -28.83789062 -2.69335938 C-32.22515719 -2.79958028 -35.61249799 -2.90162358 -39 -3 C-39 -3.33 -39 -3.66 -39 -4 C-34.68870363 -4.25731684 -30.37625371 -4.47571364 -26.0625 -4.6875 C-24.85013672 -4.76033203 -23.63777344 -4.83316406 -22.38867188 -4.90820312 C-13.84729624 -5.30170824 -7.20678247 -4.80452165 0 0 Z " fill="#1EB0F0" transform="translate(172,131)"/>
<path d="M0 0 C1.9375 1.0625 1.9375 1.0625 3 3 C2.875 6.5625 2.875 6.5625 2 10 C-1.23253796 12.15502531 -2.25150923 12.46856135 -6 12 C-7.8125 10.875 -7.8125 10.875 -9 9 C-9.39365568 5.85075452 -9.52854531 3.88090884 -7.875 1.125 C-5.11909116 -0.52854531 -3.14924548 -0.39365568 0 0 Z " fill="#38495F" transform="translate(151,154)"/>
<path d="M0 0 C0.83595703 0.00451172 1.67191406 0.00902344 2.53320312 0.01367188 C4.58466649 0.02539452 6.63609273 0.04332797 8.6875 0.0625 C8.6875 0.3925 8.6875 0.7225 8.6875 1.0625 C7.50671875 1.11148438 6.3259375 1.16046875 5.109375 1.2109375 C3.55206063 1.28598879 1.99477009 1.36153561 0.4375 1.4375 C-0.33980469 1.4684375 -1.11710937 1.499375 -1.91796875 1.53125 C-7.3854454 1.80254602 -7.3854454 1.80254602 -12.3125 4.0625 C-13.158125 4.51625 -14.00375 4.97 -14.875 5.4375 C-17.83099913 7.40816608 -19.69818218 9.29646889 -20.87792969 12.68798828 C-21.51208336 16.15303243 -21.49567601 19.60611859 -21.515625 23.1171875 C-21.52132507 23.89635529 -21.52702515 24.67552307 -21.53289795 25.478302 C-21.54232646 27.12403006 -21.54887338 28.76977681 -21.55273438 30.41552734 C-21.56243954 32.92188713 -21.59348207 35.42742622 -21.625 37.93359375 C-21.63153092 39.53645349 -21.63678104 41.13931906 -21.640625 42.7421875 C-21.6591452 43.85809769 -21.6591452 43.85809769 -21.67803955 44.99655151 C-21.65760033 49.81423948 -20.59270763 52.87059522 -18.3125 57.0625 C-18.6425 57.7225 -18.9725 58.3825 -19.3125 59.0625 C-22.42749828 56.35380584 -23.16744645 54.13219221 -23.45294189 50.05860901 C-23.4597699 49.35421188 -23.4665979 48.64981476 -23.47363281 47.92407227 C-23.48324036 47.11966202 -23.4928479 46.31525177 -23.50274658 45.48646545 C-23.50699646 44.62597092 -23.51124634 43.76547638 -23.515625 42.87890625 C-23.52132507 41.98638657 -23.52702515 41.09386688 -23.53289795 40.17430115 C-23.54233118 38.28898295 -23.54887526 36.40364839 -23.55273438 34.51831055 C-23.56245319 31.6388678 -23.59349754 28.76013513 -23.625 25.88085938 C-23.63152929 24.04687923 -23.63678005 22.21289399 -23.640625 20.37890625 C-23.6529718 19.52043594 -23.6653186 18.66196564 -23.67803955 17.77748108 C-23.66037641 13.02452602 -23.38036107 9.92621732 -20.3125 6.0625 C-13.78254684 -0.18354216 -8.57075407 -0.08793986 0 0 Z " fill="#D2FBFE" transform="translate(105.3125,127.9375)"/>
<path d="M0 0 C1.875 1.125 1.875 1.125 3 3 C3.4375 6 3.4375 6 3 9 C1.375 10.9375 1.375 10.9375 -1 12 C-4.125 11.875 -4.125 11.875 -7 11 C-9.15502531 7.76746204 -9.46856135 6.74849077 -9 3 C-6.73529086 -0.64869805 -4.03159541 -0.50394943 0 0 Z " fill="#3B4A5B" transform="translate(131,154)"/>
<path d="M0 0 C3.0625 0.3125 3.0625 0.3125 5 1.375 C6.72915678 4.52816824 5.9215699 6.93758255 5.0625 10.3125 C2.0625 12.3125 2.0625 12.3125 -1 12.125 C-3.9375 11.3125 -3.9375 11.3125 -5.9375 8.3125 C-5.54567126 3.51259791 -5.29764475 0.56357923 0 0 Z " fill="#3A4956" transform="translate(107.9375,153.6875)"/>
<path d="M0 0 C7.76099673 -0.37285927 13.12022445 -0.34091783 19.25 4.9375 C22.05404435 8.24226656 23.25386776 10.87342331 23.22705078 15.21777344 C23.22689972 16.03832214 23.22674866 16.85887085 23.22659302 17.70428467 C23.21627045 18.58046448 23.20594788 19.45664429 23.1953125 20.359375 C23.1924826 21.26375305 23.18965271 22.1681311 23.18673706 23.09991455 C23.17555782 25.98341195 23.15045733 28.86659675 23.125 31.75 C23.11496728 33.70702676 23.10584194 35.66405839 23.09765625 37.62109375 C23.07562585 42.41418262 23.04111144 47.20703834 23 52 C22.01 52 21.02 52 20 52 C20.99 51.505 20.99 51.505 22 51 C21.95568793 45.71578575 21.885689 40.43274833 21.79248047 35.14916992 C21.76435799 33.35401811 21.74310025 31.55874448 21.72900391 29.76342773 C21.70745266 27.173686 21.66074277 24.58539543 21.609375 21.99609375 C21.60814636 21.20101913 21.60691772 20.40594452 21.60565186 19.58677673 C21.46013867 13.97645573 20.11974721 10.67146817 17 6 C16.01 6 15.02 6 14 6 C13.67 5.34 13.34 4.68 13 4 C8.79183921 1.83215959 4.64457826 1.47232999 0 1 C0 0.67 0 0.34 0 0 Z " fill="#6ACEFE" transform="translate(151,128)"/>
<path d="M0 0 C-5.85693499 3.58587856 -10.9649372 6 -18 6 C-18 5.34 -18 4.68 -18 4 C-19.98 4 -21.96 4 -24 4 C-24 3.34 -24 2.68 -24 2 C-21.11314507 0.55657253 -18.40033313 0.6883965 -15.1875 0.5 C-10.17849707 0.21025545 -10.17849707 0.21025545 -5.23828125 -0.59375 C-3 -1 -3 -1 0 0 Z " fill="#24BFF0" transform="translate(165,192)"/>
<path d="M0 0 C0.66 0.33 1.32 0.66 2 1 C2.07586651 8.65374424 2.12852217 16.30739207 2.16479492 23.96142578 C2.17991108 26.56693139 2.20040432 29.17241144 2.22631836 31.77783203 C2.26257688 35.51601456 2.27969798 39.25386165 2.29296875 42.9921875 C2.30845261 44.16304901 2.32393646 45.33391052 2.33988953 46.54025269 C2.34022942 48.161707 2.34022942 48.161707 2.34057617 49.81591797 C2.34723801 50.77078094 2.35389984 51.72564392 2.36076355 52.70944214 C2.24171158 53.46532623 2.12265961 54.22121033 2 55 C1.01 55.66 0.02 56.32 -1 57 C-1.99 56.01 -2.98 55.02 -4 54 C-2.68 54 -1.36 54 0 54 C-0.01474869 53.41197601 -0.02949738 52.82395203 -0.04469299 52.21810913 C-0.19737232 46.0861491 -0.34206952 39.95403722 -0.48217773 33.82177734 C-0.53547671 31.53461953 -0.59079613 29.24750786 -0.64819336 26.96044922 C-0.73044267 23.66904649 -0.80537364 20.3775451 -0.87890625 17.0859375 C-0.90594131 16.06696381 -0.93297638 15.04799011 -0.96083069 13.99813843 C-1.06130467 9.19577924 -1.03905832 4.72299238 0 0 Z " fill="#349FF1" transform="translate(187,22)"/>
<path d="M0 0 C0.33 0 0.66 0 1 0 C1.1974877 3.08277856 1.38123332 6.1662285 1.5625 9.25 C1.61857422 10.12269531 1.67464844 10.99539062 1.73242188 11.89453125 C1.78076172 12.73886719 1.82910156 13.58320312 1.87890625 14.453125 C1.94960327 15.61569824 1.94960327 15.61569824 2.02172852 16.80175781 C1.99969234 19.03112585 1.6303897 20.86898567 1 23 C0.34 23 -0.32 23 -1 23 C-2.35201312 18.94396064 -2.18417967 15.18420555 -2.1875 10.9375 C-2.19974609 10.10927734 -2.21199219 9.28105469 -2.22460938 8.42773438 C-2.22654297 7.63560547 -2.22847656 6.84347656 -2.23046875 6.02734375 C-2.23457764 5.30281006 -2.23868652 4.57827637 -2.24291992 3.83178711 C-2 2 -2 2 0 0 Z " fill="#7591D9" transform="translate(49,39)"/>
<path d="M0 0 C9.83178808 -0.61986755 9.83178808 -0.61986755 14.0625 1.625 C18.22034325 6.72171108 18.46562279 12.67184884 19 19 C18.34 19 17.68 19 17 19 C15.66416101 14.15758367 14.74671881 10.06562383 15 5 C14.01 5.33 13.02 5.66 12 6 C12 5.34 12 4.68 12 4 C10.7625 3.896875 9.525 3.79375 8.25 3.6875 C4.64372883 3.3869774 2.76638259 2.3240106 0 0 Z " fill="#23ACF0" transform="translate(176,105)"/>
<path d="M0 0 C1.20849609 0.00644531 2.41699219 0.01289063 3.66210938 0.01953125 C5.55606445 0.04466797 5.55606445 0.04466797 7.48828125 0.0703125 C8.76251953 0.07933594 10.03675781 0.08835937 11.34960938 0.09765625 C14.50018752 0.12125609 17.65039108 0.15418056 20.80078125 0.1953125 C20.80078125 0.5253125 20.80078125 0.8553125 20.80078125 1.1953125 C19.764375 1.24429687 18.72796875 1.29328125 17.66015625 1.34375 C16.29033917 1.41880847 14.92054877 1.49435497 13.55078125 1.5703125 C12.86886719 1.60125 12.18695313 1.6321875 11.484375 1.6640625 C7.72168915 1.88324808 5.09974431 2.44542775 1.80078125 4.1953125 C-0.41796875 4.25 -0.41796875 4.25 -2.69921875 4.0703125 C-6.53923267 3.95360905 -6.53923267 3.95360905 -9.76171875 6.1953125 C-10.23609375 6.8553125 -10.71046875 7.5153125 -11.19921875 8.1953125 C-9.23647157 1.25020709 -7.11996111 -0.06685409 0 0 Z " fill="#C8F6FE" transform="translate(92.19921875,15.8046875)"/>
<path d="M0 0 C0.33 1.32 0.66 2.64 1 4 C-0.05153748 4.99093014 -1.11682846 5.96727525 -2.1875 6.9375 C-2.77917969 7.48277344 -3.37085938 8.02804688 -3.98046875 8.58984375 C-8.53096253 11.76726784 -13.5199714 11.003122 -18.8125 10.5625 C-19.50537109 10.51029297 -20.19824219 10.45808594 -20.91210938 10.40429688 C-22.60854437 10.27560181 -24.30434863 10.13863816 -26 10 C-26 9.67 -26 9.34 -26 9 C-24.46279297 8.80083984 -24.46279297 8.80083984 -22.89453125 8.59765625 C-21.5338426 8.41935912 -20.17316615 8.24096877 -18.8125 8.0625 C-18.13896484 7.97548828 -17.46542969 7.88847656 -16.77148438 7.79882812 C-7.77298392 6.71198161 -7.77298392 6.71198161 -1 1 C-0.67 0.67 -0.34 0.34 0 0 Z " fill="#71D4FC" transform="translate(171,181)"/>
<path d="M0 0 C0.98515378 2.62356462 1.42238929 5.24524123 2 8 C0 7 0 7 -1.375 4.625 C-3.68706502 0.89012574 -5.86361876 -0.62120625 -10 -2 C-12.20959253 -2.15109093 -14.42300047 -2.24873801 -16.63671875 -2.31640625 C-18.58481445 -2.37924805 -18.58481445 -2.37924805 -20.57226562 -2.44335938 C-21.94400761 -2.48316987 -23.31575244 -2.52288216 -24.6875 -2.5625 C-26.07097645 -2.60570835 -27.45444027 -2.64932339 -28.83789062 -2.69335938 C-32.22515719 -2.79958028 -35.61249799 -2.90162358 -39 -3 C-39 -3.33 -39 -3.66 -39 -4 C-34.68870363 -4.25731684 -30.37625371 -4.47571364 -26.0625 -4.6875 C-24.85013672 -4.76033203 -23.63777344 -4.83316406 -22.38867188 -4.90820312 C-13.84729624 -5.30170824 -7.20678247 -4.80452165 0 0 Z " fill="#25BAEF" transform="translate(172,131)"/>
<path d="M0 0 C0.66 0 1.32 0 2 0 C1.6697159 2.33379993 1.33625131 4.66705642 1 7 C0.8959082 7.72622559 0.79181641 8.45245117 0.68457031 9.20068359 C0.34407674 11.53171656 -0.01419365 13.85953136 -0.375 16.1875 C-0.4884375 16.98091797 -0.601875 17.77433594 -0.71875 18.59179688 C-1.38282328 22.79877175 -1.93226782 25.82086972 -5 29 C-5.33 28.01 -5.66 27.02 -6 26 C-5.34 26 -4.68 26 -4 26 C-4.04125 24.845 -4.0825 23.69 -4.125 22.5 C-4.13152366 18.78803985 -3.50953953 15.64917553 -2.5078125 12.09375 C-1.76234362 9.02012444 -1.51055298 5.93168137 -1.24609375 2.78515625 C-1 1 -1 1 0 0 Z " fill="#299DED" transform="translate(195,165)"/>
<path d="M0 0 C0.66 0.33 1.32 0.66 2 1 C2 16.84 2 32.68 2 49 C0.02 49.495 0.02 49.495 -2 50 C-2 49.34 -2 48.68 -2 48 C-1.01 47.505 -1.01 47.505 0 47 C0 31.49 0 15.98 0 0 Z " fill="#375D99" transform="translate(66,25)"/>
<path d="M0 0 C7.75 -0.125 7.75 -0.125 10 1 C11.29920852 6.41336882 10.77234615 9.89147286 9 15 C5.64574534 16.11808489 3.41010364 15.78694699 0 15 C-0.99 15 -1.98 15 -3 15 C-3 14.34 -3 13.68 -3 13 C-2.37351563 12.96261719 -1.74703125 12.92523438 -1.1015625 12.88671875 C-0.28429687 12.82097656 0.53296875 12.75523437 1.375 12.6875 C2.18710938 12.62949219 2.99921875 12.57148438 3.8359375 12.51171875 C6.37921338 12.17009472 6.37921338 12.17009472 8 9 C8.33343551 6.45792029 8.33343551 6.45792029 8 4 C5.4345406 1.4345406 3.52313332 1.45953913 0 1 C0 0.67 0 0.34 0 0 Z " fill="#23C4EF" transform="translate(139,205)"/>
<path d="M0 0 C0.33 0 0.66 0 1 0 C1.33 4.62 1.66 9.24 2 14 C0.02 14.99 0.02 14.99 -2 16 C-2.33 21.94 -2.66 27.88 -3 34 C-3.66 34 -4.32 34 -5 34 C-5.10391426 29.30567345 -4.78835235 25.01914101 -3.90625 20.41015625 C-3.68066406 19.21455078 -3.45507812 18.01894531 -3.22265625 16.78710938 C-2.98417969 15.55798828 -2.74570313 14.32886719 -2.5 13.0625 C-2.26152344 11.80630859 -2.02304688 10.55011719 -1.77734375 9.25585938 C-1.19057229 6.16944149 -0.59796024 3.08426622 0 0 Z " fill="#2D6BBA" transform="translate(198,157)"/>
<path d="M0 0 C0.66 0 1.32 0 2 0 C6 4.47058824 6 4.47058824 6 7 C11.58055056 9.3111371 16.92685832 9.4315645 22.875 9.625 C24.33679688 9.68300781 24.33679688 9.68300781 25.828125 9.7421875 C28.2185672 9.83593033 30.60901244 9.9216383 33 10 C33 10.33 33 10.66 33 11 C29.2500163 11.02905924 25.50006163 11.04681874 21.75 11.0625 C20.15478516 11.07506836 20.15478516 11.07506836 18.52734375 11.08789062 C17.50253906 11.09111328 16.47773437 11.09433594 15.421875 11.09765625 C14.47924805 11.10289307 13.53662109 11.10812988 12.56542969 11.11352539 C9.01970734 10.95662009 6.79593435 10.83061956 4.296875 8.22265625 C3.78640625 7.50980469 3.2759375 6.79695312 2.75 6.0625 C2.22921875 5.35222656 1.7084375 4.64195312 1.171875 3.91015625 C0 2 0 2 0 0 Z " fill="#7AD9EF" transform="translate(81,182)"/>
<path d="M0 0 C0.33 0 0.66 0 1 0 C1.01981934 1.1960083 1.03963867 2.3920166 1.06005859 3.62426758 C1.13608272 8.05807694 1.22480497 12.49155674 1.31738281 16.92504883 C1.35568577 18.84457904 1.39053633 20.76418135 1.421875 22.68383789 C1.46749702 25.4418313 1.5254958 28.19932777 1.5859375 30.95703125 C1.59748871 31.81649857 1.60903992 32.67596588 1.62094116 33.56147766 C1.64081085 34.36208115 1.66068054 35.16268463 1.68115234 35.98754883 C1.70113785 37.04344963 1.70113785 37.04344963 1.7215271 38.12068176 C1.91244185 40.33097464 1.91244185 40.33097464 4 43 C2.68 43 1.36 43 0 43 C0 28.81 0 14.62 0 0 Z " fill="#3060A7" transform="translate(188,32)"/>
<path d="M0 0 C-0.60328125 0.52078125 -1.2065625 1.0415625 -1.828125 1.578125 C-4.42295639 4.47164202 -5.43735099 7.10375276 -6.75 10.75 C-7.17796875 11.92046875 -7.6059375 13.0909375 -8.046875 14.296875 C-8.36140625 15.18890625 -8.6759375 16.0809375 -9 17 C-10.12202903 13.62606656 -9.84818636 11.31558733 -9.0625 7.875 C-8.26698006 4.46633016 -8.26698006 4.46633016 -8 1 C-5.29120665 -0.35439668 -2.99066732 -0.06501451 0 0 Z " fill="#3A5F9A" transform="translate(69,105)"/>
<path d="M0 0 C0.33 0 0.66 0 1 0 C2.72107623 7.66816143 2.72107623 7.66816143 0.953125 10.93359375 C-0.4375 12.5625 -0.4375 12.5625 -3 15 C-4.10844919 11.67465243 -3.84454356 9.37817425 -3 6 C-2.34 6 -1.68 6 -1 6 C-1.33 4.68 -1.66 3.36 -2 2 C-1.34 2 -0.68 2 0 2 C0 1.34 0 0.68 0 0 Z " fill="#6A86CC" transform="translate(207,56)"/>
<path d="M0 0 C0 0.99 0 1.98 0 3 C-0.97839844 3.03867187 -0.97839844 3.03867187 -1.9765625 3.078125 C-7.88074693 3.46128741 -11.39666863 4.24465072 -16 8 C-15.9375 6.25 -15.9375 6.25 -15 4 C-10.01261532 0.70644408 -5.98851797 -1.92488078 0 0 Z " fill="#98E2F6" transform="translate(96,13)"/>
<path d="M0 0 C1.37562854 1.28965176 2.70766393 2.62689293 4 4 C4 4.66 4 5.32 4 6 C4.66 6 5.32 6 6 6 C6.6875 9.3125 6.6875 9.3125 7 13 C5.5625 14.9375 5.5625 14.9375 4 16 C2.38607015 14.38607015 2.72382955 12.47568931 2.5625 10.25 C2.22877666 6.49292106 1.70749151 3.41498302 0 0 Z " fill="#31B1F6" transform="translate(173,17)"/>
<path d="M0 0 C0.66 0 1.32 0 2 0 C5 5.75 5 5.75 5 8 C3.35 8.66 1.7 9.32 0 10 C-1.125 2.25 -1.125 2.25 0 0 Z M-2 10 C-1.01 10.495 -1.01 10.495 0 11 C-0.66 12.32 -1.32 13.64 -2 15 C-2 13.35 -2 11.7 -2 10 Z " fill="#6781C7" transform="translate(205,32)"/>
<path d="M0 0 C9.57 0.33 19.14 0.66 29 1 C29 1.33 29 1.66 29 2 C19.43 2.33 9.86 2.66 0 3 C0 2.01 0 1.02 0 0 Z " fill="#4BCBF3" transform="translate(110,204)"/>
<path d="M0 0 C11.52164009 -0.55353075 11.52164009 -0.55353075 17 3 C17 3.66 17 4.32 17 5 C15.68 5.33 14.36 5.66 13 6 C13 5.34 13 4.68 13 4 C8.66579301 1.96834048 4.71403788 1.47939368 0 1 C0 0.67 0 0.34 0 0 Z " fill="#77D9FC" transform="translate(151,128)"/>
<path d="M0 0 C0.98484375 0.02707031 1.9696875 0.05414063 2.984375 0.08203125 C3.73203125 0.11683594 4.4796875 0.15164062 5.25 0.1875 C2.83469807 2.60280193 2.16746374 2.39608503 -1.125 2.5 C-4.89526572 2.81570663 -5.49081237 2.92831237 -8.3125 5.75 C-8.786875 6.554375 -9.26125 7.35875 -9.75 8.1875 C-10 5.875 -10 5.875 -9.75 3.1875 C-6.64020257 0.07770257 -4.29687174 -0.15345971 0 0 Z " fill="#96E0F6" transform="translate(74.75,104.8125)"/>
<path d="M0 0 C0.99 0.33 1.98 0.66 3 1 C2.34 3.31 1.68 5.62 1 8 C-0.32 7.34 -1.64 6.68 -3 6 C-2.42655063 3.13275314 -2.1385485 2.1385485 0 0 Z " fill="#5B75BC" transform="translate(54,29)"/>
<path d="M0 0 C3.96 0 7.92 0 12 0 C12 0.66 12 1.32 12 2 C5.72307692 4.21538462 5.72307692 4.21538462 2.0625 3.125 C1.381875 2.75375 0.70125 2.3825 0 2 C0 1.34 0 0.68 0 0 Z " fill="#42C8F0" transform="translate(128,194)"/>
<path d="M0 0 C0 0.66 0 1.32 0 2 C-3.28519475 3.09506492 -5.73663415 3.09960608 -9.1875 3.0625 C-10.81751953 3.04896484 -10.81751953 3.04896484 -12.48046875 3.03515625 C-13.31191406 3.02355469 -14.14335937 3.01195312 -15 3 C-15 2.67 -15 2.34 -15 2 C-13.88625 1.690625 -12.7725 1.38125 -11.625 1.0625 C-4.79754601 -0.93865031 -4.79754601 -0.93865031 0 0 Z " fill="#9DEDFF" transform="translate(143,187)"/>
<path d="M0 0 C1.99954746 -0.04254356 4.00041636 -0.04080783 6 0 C7.73956658 1.73956658 7.37190386 4.1936622 7.5625 6.5625 C7.64628906 7.57441406 7.73007813 8.58632812 7.81640625 9.62890625 C7.87699219 10.41136719 7.93757812 11.19382812 8 12 C6 10 6 10 4.5625 6.5625 C3.24338879 3.55492644 2.48004118 2.00765238 0 0 Z " fill="#345EA8" transform="translate(187,105)"/>
<path d="M0 0 C0.33 0 0.66 0 1 0 C0.66176471 7.91470588 0.66176471 7.91470588 -1.5625 11.5625 C-5.15709692 13.68239049 -7.86717005 13.275522 -12 13 C-12 12.67 -12 12.34 -12 12 C-9.69 12 -7.38 12 -5 12 C-2.91620491 8.15299368 -1.50313376 4.09945571 0 0 Z " fill="#79D0FD" transform="translate(174,71)"/>
<path d="M0 0 C0.66 0 1.32 0 2 0 C2.33 4.29 2.66 8.58 3 13 C1.68 12.67 0.36 12.34 -1 12 C-0.67 8.04 -0.34 4.08 0 0 Z " fill="#A9F2FC" transform="translate(78,64)"/>
<path d="M0 0 C2.5 2.0625 2.5 2.0625 5 5 C5.3125 8.8125 5.3125 8.8125 5 12 C3.68 12.33 2.36 12.66 1 13 C1.32552083 10.98177083 1.65104167 8.96354167 1.9765625 6.9453125 C1.98429688 6.30335938 1.99203125 5.66140625 2 5 C1.34 4.34 0.68 3.68 0 3 C0 2.01 0 1.02 0 0 Z " fill="#9CD3E8" transform="translate(151,152)"/>
<path d="M0 0 C1.50433594 0.01353516 1.50433594 0.01353516 3.0390625 0.02734375 C3.80992187 0.03894531 4.58078125 0.05054688 5.375 0.0625 C2.78573669 2.65176331 1.34794721 2.43648043 -2.25 2.6875 C-3.25289062 2.76226562 -4.25578125 2.83703125 -5.2890625 2.9140625 C-6.44535156 2.98753906 -6.44535156 2.98753906 -7.625 3.0625 C-7.625 2.4025 -7.625 1.7425 -7.625 1.0625 C-4.98041621 -0.25979189 -2.94738699 -0.03427194 0 0 Z " fill="#36C7EE" transform="translate(148.625,192.9375)"/>
<path d="M0 0 C2 1 2 1 3.0625 3.5 C4.17578822 7.65627604 4.6387468 11.72200161 5 16 C4.34 16 3.68 16 3 16 C2.01 10.72 1.02 5.44 0 0 Z " fill="#2C9EEC" transform="translate(190,108)"/>
<path d="M0 0 C0.66 0 1.32 0 2 0 C1.45144652 4.571279 0.58255197 8.67435795 -1 13 C-2.01936725 9.94189824 -2.00186825 8.50198793 -1.625 5.375 C-1.53476563 4.57835937 -1.44453125 3.78171875 -1.3515625 2.9609375 C-1 1 -1 1 0 0 Z " fill="#28A9F3" transform="translate(195,165)"/>
<path d="M0 0 C2 1 2 1 2.75 2.6875 C3.08937645 5.82673219 2.12469641 8.08902106 1 11 C0.01 10.67 -0.98 10.34 -2 10 C-1.67 9.67 -1.34 9.34 -1 9 C-0.75266863 4.85723125 -0.75266863 4.85723125 -2 1 C-1.34 0.67 -0.68 0.34 0 0 Z " fill="#95D3EB" transform="translate(162,44)"/>
<path d="M0 0 C2.3125 0.1875 2.3125 0.1875 4 1 C1.75 3.5625 1.75 3.5625 -1 6 C-3.3125 5.8125 -3.3125 5.8125 -5 5 C-2.75 2.4375 -2.75 2.4375 0 0 Z " fill="#16B9F4" transform="translate(170,186)"/>
<path d="M0 0 C0.33 1.32 0.66 2.64 1 4 C0.34 4 -0.32 4 -1 4 C-1.33 4.99 -1.66 5.98 -2 7 C-3.670625 6.7525 -3.670625 6.7525 -5.375 6.5 C-8.72032033 5.9544542 -8.72032033 5.9544542 -11 6 C-11 5.34 -11 4.68 -11 4 C-10.37351563 3.96261719 -9.74703125 3.92523438 -9.1015625 3.88671875 C-8.28429687 3.82097656 -7.46703125 3.75523437 -6.625 3.6875 C-5.81289062 3.62949219 -5.00078125 3.57148438 -4.1640625 3.51171875 C-1.62078662 3.17009472 -1.62078662 3.17009472 0 0 Z " fill="#32C6F2" transform="translate(147,214)"/>
<path d="M0 0 C0 2 0 2 -1.8125 4.125 C-4 6 -4 6 -7 6 C-7.33 7.32 -7.66 8.64 -8 10 C-8.375 7.8125 -8.375 7.8125 -8 5 C-5.8280714 2.51971116 -3.44755208 0 0 0 Z " fill="#46535E" transform="translate(102,42)"/>
<path d="M0 0 C2.1519437 3.22791555 2.20086443 4.28400809 2 8 C0.68 8.33 -0.64 8.66 -2 9 C-1.125 1.125 -1.125 1.125 0 0 Z " fill="#7793D5" transform="translate(6,202)"/>
<path d="M0 0 C-1.65 1.98 -3.3 3.96 -5 6 C-6.5 4.625 -6.5 4.625 -8 3 C-8 2.34 -8 1.68 -8 1 C-5.29120665 -0.35439668 -2.99066732 -0.06501451 0 0 Z " fill="#3C5688" transform="translate(69,105)"/>
<path d="M0 0 C0.66 0 1.32 0 2 0 C2.33 1.98 2.66 3.96 3 6 C1.68 6.99 0.36 7.98 -1 9 C-0.67 6.03 -0.34 3.06 0 0 Z " fill="#5F78BF" transform="translate(204,62)"/>
<path d="M0 0 C1.3921875 0.0928125 1.3921875 0.0928125 2.8125 0.1875 C2.8125 1.1775 2.8125 2.1675 2.8125 3.1875 C-0.1575 3.1875 -3.1275 3.1875 -6.1875 3.1875 C-3.1875 0.1875 -3.1875 0.1875 0 0 Z " fill="#A3D5E6" transform="translate(148.1875,52.8125)"/>
<path d="M0 0 C0.33 0 0.66 0 1 0 C1 3.3 1 6.6 1 10 C0.34 10 -0.32 10 -1 10 C-2.15837626 5.94568308 -1.83691257 3.78187881 0 0 Z " fill="#60C4FA" transform="translate(175,22)"/>
<path d="M0 0 C0.33 0 0.66 0 1 0 C1.33 3.63 1.66 7.26 2 11 C1.01 10.67 0.02 10.34 -1 10 C-0.67 6.7 -0.34 3.4 0 0 Z " fill="#7894D6" transform="translate(250,200)"/>
<path d="M0 0 C1.95582488 2.93373731 3.56224304 5.78216298 5 9 C4.67 9.66 4.34 10.32 4 11 C1.9656541 9.58480285 1.09589607 8.45017877 0.578125 6.01953125 C0.33726048 4.01823046 0.16467259 2.0090056 0 0 Z " fill="#C8F9FB" transform="translate(82,176)"/>
<path d="M0 0 C2.875 -0.1875 2.875 -0.1875 6 0 C6.66 0.99 7.32 1.98 8 3 C5.36 3 2.72 3 0 3 C0 2.01 0 1.02 0 0 Z " fill="#D6E8F3" transform="translate(105,53)"/>
<path d="M0 0 C0 0.66 0 1.32 0 2 C-1.1446875 2.4021875 -1.1446875 2.4021875 -2.3125 2.8125 C-4.87380884 3.94424112 -6.19692938 4.91223401 -8 7 C-7.25 4.0625 -7.25 4.0625 -6 1 C-3.81903388 0.04582732 -2.35817766 0 0 0 Z " fill="#D6F9FF" transform="translate(89,17)"/>
<path d="M0 0 C0.33 0 0.66 0 1 0 C1 1.98 1 3.96 1 6 C0.67 6 0.34 6 0 6 C0 4.02 0 2.04 0 0 Z " fill="#7F90CC" transform="translate(252,200)"/>
<path d="M0 0 C0.33 0 0.66 0 1 0 C1 1.98 1 3.96 1 6 C0.67 6 0.34 6 0 6 C0 4.02 0 2.04 0 0 Z " fill="#7F90C9" transform="translate(3,200)"/>
<path d="M0 0 C1 4 1 4 1 4 Z " fill="#7E8ED2" transform="translate(252,212)"/>
<path d="M0 0 C1 4 1 4 1 4 Z " fill="#7F8FCA" transform="translate(3,212)"/>
<path d="M0 0 C4 1 4 1 4 1 Z " fill="#3B5E97" transform="translate(194,104)"/>
<path d="M0 0 C4 1 4 1 4 1 Z " fill="#4C5884" transform="translate(58,104)"/>
<path d="M0 0 C4 1 4 1 4 1 Z " fill="#2EAAE4" transform="translate(169,97)"/>
<path d="M0 0 C4 1 4 1 4 1 Z " fill="#91DEEE" transform="translate(83,97)"/>
<path d="M0 0 C1 4 1 4 1 4 Z " fill="#3C9DEA" transform="translate(189,77)"/>
<path d="M0 0 C1 4 1 4 1 4 Z " fill="#A7EAFA" transform="translate(66,77)"/>
<path d="M0 0 C1 4 1 4 1 4 Z " fill="#41A0E5" transform="translate(189,19)"/>
<path d="M0 0 C1 4 1 4 1 4 Z " fill="#AFE4FC" transform="translate(66,19)"/>
<path d="M0 0 C4 1 4 1 4 1 Z " fill="#29ABEA" transform="translate(169,2)"/>
<path d="M0 0 C4 1 4 1 4 1 Z " fill="#92DEF9" transform="translate(83,2)"/>
<path d="M0 0 C3 1 3 1 3 1 Z " fill="#6E83C8" transform="translate(241,224)"/>
<path d="M0 0 C3 1 3 1 3 1 Z " fill="#6377BB" transform="translate(235,224)"/>
<path d="M0 0 C3 1 3 1 3 1 Z " fill="#6574C0" transform="translate(18,224)"/>
<path d="M0 0 C3 1 3 1 3 1 Z " fill="#7083CA" transform="translate(12,224)"/>
<path d="" fill="#7A92C2" transform="translate(0,0)"/>
<path d="" fill="#7C8EC6" transform="translate(0,0)"/>
<path d="" fill="#768FCB" transform="translate(0,0)"/>
<path d="" fill="#788CCD" transform="translate(0,0)"/>
<path d="" fill="#738EBD" transform="translate(0,0)"/>
<path d="" fill="#6A8BD1" transform="translate(0,0)"/>
<path d="" fill="#6E89D1" transform="translate(0,0)"/>
<path d="" fill="#7186C4" transform="translate(0,0)"/>
<path d="" fill="#7085C2" transform="translate(0,0)"/>
<path d="" fill="#6A83CC" transform="translate(0,0)"/>
<path d="" fill="#6D83C9" transform="translate(0,0)"/>
<path d="M0 0 C3 1 3 1 3 1 Z " fill="#4F5C9B" transform="translate(195,75)"/>
<path d="M0 0 C3 1 3 1 3 1 Z " fill="#4E5C95" transform="translate(60,75)"/>
<path d="" fill="#7B8ECD" transform="translate(0,0)"/>
<path d="" fill="#7B90C6" transform="translate(0,0)"/>
<path d="" fill="#7B8AC9" transform="translate(0,0)"/>
<path d="" fill="#7D8DC4" transform="translate(0,0)"/>
<path d="M0 0 C3 1 3 1 3 1 Z " fill="#4D6298" transform="translate(195,24)"/>
<path d="M0 0 C3 1 3 1 3 1 Z " fill="#4C5D95" transform="translate(60,24)"/>
<path d="M0 0 C2 1 2 1 2 1 Z " fill="#45C6E8" transform="translate(130,253)"/>
<path d="M0 0 C2 1 2 1 2 1 Z " fill="#49CCE7" transform="translate(124,253)"/>
<path d="M0 0 C2 1 2 1 2 1 Z " fill="#27D0FD" transform="translate(133,252)"/>
<path d="M0 0 C2 1 2 1 2 1 Z " fill="#4CCCEF" transform="translate(121,252)"/>
<path d="M0 0 C2 1 2 1 2 1 Z " fill="#35C4F0" transform="translate(135,251)"/>
<path d="M0 0 C2 1 2 1 2 1 Z " fill="#54C8FD" transform="translate(119,251)"/>
<path d="M0 0 C2 1 2 1 2 1 Z " fill="#2CC7E9" transform="translate(138,250)"/>
<path d="M0 0 C2 1 2 1 2 1 Z " fill="#53CDFB" transform="translate(116,250)"/>
<path d="M0 0 C2 1 2 1 2 1 Z " fill="#30C3F3" transform="translate(140,249)"/>
<path d="M0 0 C2 1 2 1 2 1 Z " fill="#58CDF2" transform="translate(114,249)"/>
<path d="M0 0 C2 1 2 1 2 1 Z " fill="#23C7F6" transform="translate(142,248)"/>
<path d="M0 0 C2 1 2 1 2 1 Z " fill="#5DCCEF" transform="translate(112,248)"/>
<path d="M0 0 C2 1 2 1 2 1 Z " fill="#24BFF1" transform="translate(144,247)"/>
<path d="M0 0 C2 1 2 1 2 1 Z " fill="#67CDED" transform="translate(110,247)"/>
<path d="M0 0 C2 1 2 1 2 1 Z " fill="#19C4F5" transform="translate(146,246)"/>
<path d="M0 0 C2 1 2 1 2 1 Z " fill="#62D2EC" transform="translate(108,246)"/>
<path d="M0 0 C2 1 2 1 2 1 Z " fill="#18C5F1" transform="translate(148,245)"/>
<path d="M0 0 C2 1 2 1 2 1 Z " fill="#15C3F0" transform="translate(151,243)"/>
<path d="M0 0 C2 1 2 1 2 1 Z " fill="#5ED7FD" transform="translate(103,243)"/>
<path d="M0 0 C2 1 2 1 2 1 Z " fill="#0FBFF2" transform="translate(157,239)"/>
<path d="M0 0 C2 1 2 1 2 1 Z " fill="#6DD7F5" transform="translate(97,239)"/>
<path d="M0 0 C2 1 2 1 2 1 Z " fill="#02C2FA" transform="translate(161,236)"/>
<path d="M0 0 C2 1 2 1 2 1 Z " fill="#69DFF7" transform="translate(93,236)"/>
<path d="M0 0 C2 1 2 1 2 1 Z " fill="#6B88C5" transform="translate(244,223)"/>
<path d="M0 0 C2 1 2 1 2 1 Z " fill="#5A7AB4" transform="translate(232,223)"/>
<path d="M0 0 C2 1 2 1 2 1 Z " fill="#5F76AF" transform="translate(22,223)"/>
<path d="M0 0 C2 1 2 1 2 1 Z " fill="#6E88C6" transform="translate(10,223)"/>
<path d="M0 0 C2 1 2 1 2 1 Z " fill="#597BB0" transform="translate(230,222)"/>
<path d="M0 0 C2 1 2 1 2 1 Z " fill="#5A73B4" transform="translate(24,222)"/>
<path d="M0 0 C2 1 2 1 2 1 Z " fill="#728CCB" transform="translate(247,221)"/>
<path d="M0 0 C2 1 2 1 2 1 Z " fill="#5676AF" transform="translate(228,221)"/>
<path d="M0 0 C2 1 2 1 2 1 Z " fill="#5C70A7" transform="translate(26,221)"/>
<path d="M0 0 C2 1 2 1 2 1 Z " fill="#738BC9" transform="translate(7,221)"/>
<path d="M0 0 C2 1 2 1 2 1 Z " fill="#5C6BAB" transform="translate(226,220)"/>
<path d="M0 0 C2 1 2 1 2 1 Z " fill="#5D6BA3" transform="translate(28,220)"/>
<path d="M0 0 C2 1 2 1 2 1 Z " fill="#5167B5" transform="translate(223,218)"/>
<path d="" fill="#1AB5E8" transform="translate(0,0)"/>
<path d="" fill="#8AE4F6" transform="translate(0,0)"/>
<path d="M0 0 C2 1 2 1 2 1 Z " fill="#5267B2" transform="translate(31,218)"/>
<path d="" fill="#7B90CB" transform="translate(0,0)"/>
<path d="" fill="#798ED1" transform="translate(0,0)"/>
<path d="M0 0 C2 1 2 1 2 1 Z " fill="#4D63AF" transform="translate(220,216)"/>
<path d="M0 0 C2 1 2 1 2 1 Z " fill="#4D679F" transform="translate(34,216)"/>
<path d="" fill="#1EB1F4" transform="translate(0,0)"/>
<path d="" fill="#8AE4F6" transform="translate(0,0)"/>
<path d="M0 0 C2 1 2 1 2 1 Z " fill="#49619C" transform="translate(216,213)"/>
<path d="M0 0 C2 1 2 1 2 1 Z " fill="#4A61A2" transform="translate(38,213)"/>
<path d="" fill="#2AABF1" transform="translate(0,0)"/>
<path d="" fill="#94E3F6" transform="translate(0,0)"/>
<path d="M0 0 C2 1 2 1 2 1 Z " fill="#4C5AA6" transform="translate(211,209)"/>
<path d="M0 0 C2 1 2 1 2 1 Z " fill="#495DA5" transform="translate(43,209)"/>
<path d="" fill="#28AAF4" transform="translate(0,0)"/>
<path d="" fill="#94E4FC" transform="translate(0,0)"/>
<path d="" fill="#21ACFB" transform="translate(0,0)"/>
<path d="" fill="#98E4FA" transform="translate(0,0)"/>
<path d="" fill="#18B1F6" transform="translate(0,0)"/>
<path d="" fill="#9CE2F9" transform="translate(0,0)"/>
<path d="M0 0 C2 1 2 1 2 1 Z " fill="#4B5997" transform="translate(202,201)"/>
<path d="" fill="#2AAAEC" transform="translate(0,0)"/>
<path d="" fill="#9DE4FD" transform="translate(0,0)"/>
<path d="M0 0 C2 1 2 1 2 1 Z " fill="#47589B" transform="translate(52,201)"/>
<path d="" fill="#1F92DB" transform="translate(0,0)"/>
<path d="" fill="#9EE3F8" transform="translate(0,0)"/>
<path d="" fill="#319CF0" transform="translate(0,0)"/>
<path d="" fill="#A2E2FE" transform="translate(0,0)"/>
<path d="" fill="#7090BF" transform="translate(0,0)"/>
<path d="" fill="#6886B7" transform="translate(0,0)"/>
<path d="" fill="#6B87B5" transform="translate(0,0)"/>
<path d="" fill="#6683C7" transform="translate(0,0)"/>
<path d="" fill="#6684C6" transform="translate(0,0)"/>
<path d="" fill="#6884BE" transform="translate(0,0)"/>
<path d="" fill="#6783BD" transform="translate(0,0)"/>
<path d="" fill="#6582C8" transform="translate(0,0)"/>
<path d="" fill="#6481C7" transform="translate(0,0)"/>
<path d="" fill="#6F76C1" transform="translate(0,0)"/>
<path d="" fill="#6E75C0" transform="translate(0,0)"/>
<path d="" fill="#6875C1" transform="translate(0,0)"/>
<path d="" fill="#6777C4" transform="translate(0,0)"/>
<path d="" fill="#6075B8" transform="translate(0,0)"/>
<path d="" fill="#5D78BB" transform="translate(0,0)"/>
<path d="" fill="#6373B5" transform="translate(0,0)"/>
<path d="" fill="#5979B5" transform="translate(0,0)"/>
<path d="" fill="#6672B5" transform="translate(0,0)"/>
<path d="" fill="#5D75B0" transform="translate(0,0)"/>
<path d="" fill="#6171B2" transform="translate(0,0)"/>
<path d="" fill="#676DB2" transform="translate(0,0)"/>
<path d="" fill="#606EB7" transform="translate(0,0)"/>
<path d="" fill="#636DB7" transform="translate(0,0)"/>
<path d="" fill="#5E6EB0" transform="translate(0,0)"/>
<path d="" fill="#616CB0" transform="translate(0,0)"/>
<path d="" fill="#5D6DAE" transform="translate(0,0)"/>
<path d="" fill="#5F6BB2" transform="translate(0,0)"/>
<path d="" fill="#586BA4" transform="translate(0,0)"/>
<path d="" fill="#5B6AA3" transform="translate(0,0)"/>
<path d="" fill="#566BA6" transform="translate(0,0)"/>
<path d="" fill="#596AA4" transform="translate(0,0)"/>
<path d="" fill="#5568AF" transform="translate(0,0)"/>
<path d="" fill="#5565B0" transform="translate(0,0)"/>
<path d="" fill="#5567A9" transform="translate(0,0)"/>
<path d="" fill="#5465AC" transform="translate(0,0)"/>
<path d="" fill="#566896" transform="translate(0,0)"/>
<path d="" fill="#54659C" transform="translate(0,0)"/>
<path d="" fill="#5060A5" transform="translate(0,0)"/>
<path d="" fill="#515FA4" transform="translate(0,0)"/>
<path d="" fill="#4E63A0" transform="translate(0,0)"/>
<path d="" fill="#4E61A0" transform="translate(0,0)"/>
<path d="" fill="#48619B" transform="translate(0,0)"/>
<path d="" fill="#4C5E98" transform="translate(0,0)"/>
<path d="M0 0 C2 1 2 1 2 1 Z " fill="#445AA3" transform="translate(210,111)"/>
<path d="M0 0 C2 1 2 1 2 1 Z " fill="#485A9E" transform="translate(44,111)"/>
<path d="M0 0 C2 1 2 1 2 1 Z " fill="#4C559B" transform="translate(204,107)"/>
<path d="M0 0 C2 1 2 1 2 1 Z " fill="#495890" transform="translate(50,107)"/>
<path d="M0 0 C2 1 2 1 2 1 Z " fill="#465999" transform="translate(202,106)"/>
<path d="M0 0 C2 1 2 1 2 1 Z " fill="#4B568F" transform="translate(52,106)"/>
<path d="M0 0 C2 1 2 1 2 1 Z " fill="#405C97" transform="translate(199,105)"/>
<path d="M0 0 C2 1 2 1 2 1 Z " fill="#4D568C" transform="translate(55,105)"/>
<path d="M0 0 C2 1 2 1 2 1 Z " fill="#28A9F7" transform="translate(173,96)"/>
<path d="M0 0 C2 1 2 1 2 1 Z " fill="#88E6F6" transform="translate(81,96)"/>
<path d="M0 0 C2 1 2 1 2 1 Z " fill="#1BB1EF" transform="translate(177,94)"/>
<path d="M0 0 C2 1 2 1 2 1 Z " fill="#AADEEE" transform="translate(77,94)"/>
<path d="" fill="#26A8FB" transform="translate(0,0)"/>
<path d="" fill="#A0EEFD" transform="translate(0,0)"/>
<path d="" fill="#29A6FD" transform="translate(0,0)"/>
<path d="" fill="#A1EEF9" transform="translate(0,0)"/>
<path d="M0 0 C2 1 2 1 2 1 Z " fill="#5B6DA9" transform="translate(202,72)"/>
<path d="M0 0 C2 1 2 1 2 1 Z " fill="#5872AF" transform="translate(54,72)"/>
<path d="" fill="#687FBB" transform="translate(0,0)"/>
<path d="" fill="#6878AD" transform="translate(0,0)"/>
<path d="" fill="#677CB9" transform="translate(0,0)"/>
<path d="" fill="#6476B9" transform="translate(0,0)"/>
<path d="M0 0 C2 1 2 1 2 1 Z " fill="#5D6EB4" transform="translate(202,27)"/>
<path d="M0 0 C2 1 2 1 2 1 Z " fill="#5E70B0" transform="translate(54,27)"/>
<path d="" fill="#2AA8F8" transform="translate(0,0)"/>
<path d="" fill="#A3E9FF" transform="translate(0,0)"/>
<path d="" fill="#20AAFF" transform="translate(0,0)"/>
<path d="" fill="#A3E8FC" transform="translate(0,0)"/>
<path d="M0 0 C2 1 2 1 2 1 Z " fill="#11B2FF" transform="translate(177,5)"/>
<path d="M0 0 C2 1 2 1 2 1 Z " fill="#94E7F7" transform="translate(77,5)"/>
<path d="M0 0 C2 1 2 1 2 1 Z " fill="#1DAEFC" transform="translate(173,3)"/>
<path d="M0 0 C2 1 2 1 2 1 Z " fill="#8CE4FF" transform="translate(81,3)"/>
<path d="" fill="#5DD5F3" transform="translate(0,0)"/>
<path d="" fill="#0BCCFA" transform="translate(0,0)"/>
<path d="" fill="#5BD7FA" transform="translate(0,0)"/>
<path d="" fill="#15C0F4" transform="translate(0,0)"/>
<path d="" fill="#66D6FC" transform="translate(0,0)"/>
<path d="" fill="#19BDF8" transform="translate(0,0)"/>
<path d="" fill="#6BD6F2" transform="translate(0,0)"/>
<path d="" fill="#07C4FC" transform="translate(0,0)"/>
<path d="" fill="#65D7F2" transform="translate(0,0)"/>
<path d="" fill="#0AC2EF" transform="translate(0,0)"/>
<path d="" fill="#75D6F5" transform="translate(0,0)"/>
<path d="" fill="#09C2EA" transform="translate(0,0)"/>
<path d="" fill="#74DBF3" transform="translate(0,0)"/>
<path d="" fill="#00C2FF" transform="translate(0,0)"/>
<path d="" fill="#6FDBFF" transform="translate(0,0)"/>
<path d="" fill="#00C1FB" transform="translate(0,0)"/>
<path d="" fill="#72DAFD" transform="translate(0,0)"/>
<path d="" fill="#08BFF3" transform="translate(0,0)"/>
<path d="" fill="#7ADAF5" transform="translate(0,0)"/>
<path d="" fill="#0EBBF5" transform="translate(0,0)"/>
<path d="" fill="#7CDEF8" transform="translate(0,0)"/>
<path d="" fill="#0DB9F8" transform="translate(0,0)"/>
<path d="" fill="#7CDEFA" transform="translate(0,0)"/>
<path d="" fill="#0CB9FC" transform="translate(0,0)"/>
<path d="" fill="#7FDFF5" transform="translate(0,0)"/>
<path d="" fill="#0FB9F6" transform="translate(0,0)"/>
<path d="" fill="#7BE1F3" transform="translate(0,0)"/>
<path d="" fill="#04BDFC" transform="translate(0,0)"/>
<path d="" fill="#73E4F9" transform="translate(0,0)"/>
<path d="" fill="#04BEFA" transform="translate(0,0)"/>
<path d="" fill="#7EDFFF" transform="translate(0,0)"/>
<path d="" fill="#0ABAFA" transform="translate(0,0)"/>
<path d="" fill="#85DAFF" transform="translate(0,0)"/>
<path d="" fill="#14B6FA" transform="translate(0,0)"/>
<path d="" fill="#7AD4F5" transform="translate(0,0)"/>
<path d="" fill="#16B3F9" transform="translate(0,0)"/>
<path d="" fill="#78D5F5" transform="translate(0,0)"/>
<path d="" fill="#27AEEE" transform="translate(0,0)"/>
<path d="" fill="#86D7F7" transform="translate(0,0)"/>
<path d="" fill="#6D89CD" transform="translate(0,0)"/>
<path d="" fill="#6D89CD" transform="translate(0,0)"/>
<path d="" fill="#23B1F5" transform="translate(0,0)"/>
<path d="" fill="#8FE0FF" transform="translate(0,0)"/>
<path d="" fill="#1DB3F0" transform="translate(0,0)"/>
<path d="" fill="#8CE1FF" transform="translate(0,0)"/>
<path d="" fill="#7790CC" transform="translate(0,0)"/>
<path d="" fill="#5867B4" transform="translate(0,0)"/>
<path d="" fill="#18B7E6" transform="translate(0,0)"/>
<path d="" fill="#8CE2FE" transform="translate(0,0)"/>
<path d="" fill="#5668B0" transform="translate(0,0)"/>
<path d="" fill="#7690CC" transform="translate(0,0)"/>
<path d="" fill="#7A8ED5" transform="translate(0,0)"/>
<path d="" fill="#778DD8" transform="translate(0,0)"/>
<path d="" fill="#4B66AF" transform="translate(0,0)"/>
<path d="" fill="#5067A8" transform="translate(0,0)"/>
<path d="" fill="#17B5F2" transform="translate(0,0)"/>
<path d="" fill="#89E6F4" transform="translate(0,0)"/>
<path d="" fill="#5162A3" transform="translate(0,0)"/>
<path d="" fill="#4C659F" transform="translate(0,0)"/>
<path d="" fill="#50619F" transform="translate(0,0)"/>
<path d="" fill="#4B63A2" transform="translate(0,0)"/>
<path d="" fill="#2AACF2" transform="translate(0,0)"/>
<path d="" fill="#8EE4F4" transform="translate(0,0)"/>
<path d="" fill="#47629F" transform="translate(0,0)"/>
<path d="" fill="#4D60A2" transform="translate(0,0)"/>
<path d="" fill="#4760A5" transform="translate(0,0)"/>
<path d="" fill="#4A5EA7" transform="translate(0,0)"/>
<path d="" fill="#495EAB" transform="translate(0,0)"/>
<path d="" fill="#28ADF2" transform="translate(0,0)"/>
<path d="" fill="#99E3F8" transform="translate(0,0)"/>
<path d="" fill="#495EAD" transform="translate(0,0)"/>
<path d="" fill="#4A59A6" transform="translate(0,0)"/>
<path d="" fill="#27ADF4" transform="translate(0,0)"/>
<path d="" fill="#97E4F8" transform="translate(0,0)"/>
<path d="" fill="#4A5BA7" transform="translate(0,0)"/>
<path d="" fill="#475CA0" transform="translate(0,0)"/>
<path d="" fill="#485AA2" transform="translate(0,0)"/>
<path d="" fill="#485C9C" transform="translate(0,0)"/>
<path d="" fill="#485BA0" transform="translate(0,0)"/>
<path d="" fill="#4C5A9C" transform="translate(0,0)"/>
<path d="" fill="#4758A7" transform="translate(0,0)"/>
<path d="" fill="#4D58A2" transform="translate(0,0)"/>
<path d="" fill="#4758A5" transform="translate(0,0)"/>
<path d="" fill="#4A58A1" transform="translate(0,0)"/>
<path d="" fill="#4759A1" transform="translate(0,0)"/>
<path d="" fill="#4A589F" transform="translate(0,0)"/>
<path d="" fill="#4759A1" transform="translate(0,0)"/>
<path d="" fill="#4C5899" transform="translate(0,0)"/>
<path d="" fill="#46589F" transform="translate(0,0)"/>
<path d="" fill="#4C579F" transform="translate(0,0)"/>
<path d="" fill="#445AA3" transform="translate(0,0)"/>
<path d="" fill="#4A59A6" transform="translate(0,0)"/>
<path d="" fill="#219CE0" transform="translate(0,0)"/>
<path d="" fill="#95E9F8" transform="translate(0,0)"/>
<path d="" fill="#485EA4" transform="translate(0,0)"/>
<path d="" fill="#415AAD" transform="translate(0,0)"/>
<path d="" fill="#3E559D" transform="translate(0,0)"/>
<path d="" fill="#375FAB" transform="translate(0,0)"/>
<path d="" fill="#445CA8" transform="translate(0,0)"/>
<path d="" fill="#3B5F99" transform="translate(0,0)"/>
<path d="" fill="#485BA9" transform="translate(0,0)"/>
<path d="" fill="#3D5B9E" transform="translate(0,0)"/>
<path d="" fill="#41579D" transform="translate(0,0)"/>
<path d="" fill="#385DAE" transform="translate(0,0)"/>
<path d="" fill="#37578E" transform="translate(0,0)"/>
<path d="" fill="#3874C6" transform="translate(0,0)"/>
<path d="" fill="#3F699A" transform="translate(0,0)"/>
<path d="" fill="#6473B0" transform="translate(0,0)"/>
<path d="" fill="#6671AD" transform="translate(0,0)"/>
<path d="" fill="#5A6BAC" transform="translate(0,0)"/>
<path d="" fill="#5D6BB1" transform="translate(0,0)"/>
<path d="" fill="#5A6BAA" transform="translate(0,0)"/>
<path d="" fill="#5C6BAA" transform="translate(0,0)"/>
<path d="" fill="#566798" transform="translate(0,0)"/>
<path d="" fill="#53669B" transform="translate(0,0)"/>
<path d="" fill="#5563A5" transform="translate(0,0)"/>
<path d="" fill="#55629E" transform="translate(0,0)"/>
<path d="" fill="#565FA5" transform="translate(0,0)"/>
<path d="" fill="#56609F" transform="translate(0,0)"/>
<path d="" fill="#4B63A4" transform="translate(0,0)"/>
<path d="" fill="#4A61A2" transform="translate(0,0)"/>
<path d="" fill="#4762A6" transform="translate(0,0)"/>
<path d="" fill="#4960A5" transform="translate(0,0)"/>
<path d="" fill="#4564A2" transform="translate(0,0)"/>
<path d="" fill="#4A5FA1" transform="translate(0,0)"/>
<path d="" fill="#4D5F9B" transform="translate(0,0)"/>
<path d="" fill="#515E99" transform="translate(0,0)"/>
<path d="" fill="#4E5C9E" transform="translate(0,0)"/>
<path d="" fill="#505C9C" transform="translate(0,0)"/>
<path d="" fill="#4E59A3" transform="translate(0,0)"/>
<path d="" fill="#505B9E" transform="translate(0,0)"/>
<path d="" fill="#4C59A2" transform="translate(0,0)"/>
<path d="" fill="#4D5B9F" transform="translate(0,0)"/>
<path d="" fill="#405BA1" transform="translate(0,0)"/>
<path d="" fill="#465B9D" transform="translate(0,0)"/>
<path d="" fill="#4359A1" transform="translate(0,0)"/>
<path d="" fill="#44599D" transform="translate(0,0)"/>
<path d="" fill="#495897" transform="translate(0,0)"/>
<path d="" fill="#46599B" transform="translate(0,0)"/>
<path d="" fill="#22AEF1" transform="translate(0,0)"/>
<path d="" fill="#A9DEF3" transform="translate(0,0)"/>
<path d="" fill="#1BB0EF" transform="translate(0,0)"/>
<path d="" fill="#A6E2EC" transform="translate(0,0)"/>
<path d="" fill="#1CADFC" transform="translate(0,0)"/>
<path d="" fill="#A4E6EB" transform="translate(0,0)"/>
<path d="" fill="#23AAF7" transform="translate(0,0)"/>
<path d="" fill="#A5E8F1" transform="translate(0,0)"/>
<path d="" fill="#1EADF5" transform="translate(0,0)"/>
<path d="" fill="#A4E8F7" transform="translate(0,0)"/>
<path d="" fill="#23A9FC" transform="translate(0,0)"/>
<path d="" fill="#A2EAFD" transform="translate(0,0)"/>
<path d="" fill="#28A8F7" transform="translate(0,0)"/>
<path d="" fill="#A3EBFC" transform="translate(0,0)"/>
<path d="" fill="#29A6FE" transform="translate(0,0)"/>
<path d="" fill="#A4EDFB" transform="translate(0,0)"/>
<path d="" fill="#3C7BC8" transform="translate(0,0)"/>
<path d="" fill="#7398C2" transform="translate(0,0)"/>
<path d="" fill="#51639D" transform="translate(0,0)"/>
<path d="" fill="#4C5EA5" transform="translate(0,0)"/>
<path d="" fill="#56689F" transform="translate(0,0)"/>
<path d="" fill="#5168A9" transform="translate(0,0)"/>
<path d="" fill="#5C72AF" transform="translate(0,0)"/>
<path d="" fill="#5E74B1" transform="translate(0,0)"/>
<path d="" fill="#5D74B3" transform="translate(0,0)"/>
<path d="" fill="#6274B0" transform="translate(0,0)"/>
<path d="" fill="#6277B6" transform="translate(0,0)"/>
<path d="" fill="#6A78B1" transform="translate(0,0)"/>
<path d="" fill="#6379B6" transform="translate(0,0)"/>
<path d="" fill="#6A75AA" transform="translate(0,0)"/>
<path d="" fill="#7089C1" transform="translate(0,0)"/>
<path d="" fill="#6F7EAF" transform="translate(0,0)"/>
<path d="" fill="#758DC9" transform="translate(0,0)"/>
<path d="" fill="#748BC5" transform="translate(0,0)"/>
<path d="" fill="#7687C8" transform="translate(0,0)"/>
<path d="" fill="#7084C1" transform="translate(0,0)"/>
<path d="" fill="#758BC8" transform="translate(0,0)"/>
<path d="" fill="#7084C1" transform="translate(0,0)"/>
<path d="" fill="#6373A9" transform="translate(0,0)"/>
<path d="" fill="#5B6CAF" transform="translate(0,0)"/>
<path d="" fill="#6A79B6" transform="translate(0,0)"/>
<path d="" fill="#6273B6" transform="translate(0,0)"/>
<path d="" fill="#6A79B8" transform="translate(0,0)"/>
<path d="" fill="#5F6FB3" transform="translate(0,0)"/>
<path d="" fill="#6270B4" transform="translate(0,0)"/>
<path d="" fill="#5F70B1" transform="translate(0,0)"/>
<path d="" fill="#586AAD" transform="translate(0,0)"/>
<path d="" fill="#4E63A7" transform="translate(0,0)"/>
<path d="" fill="#4D64AC" transform="translate(0,0)"/>
<path d="" fill="#4861AA" transform="translate(0,0)"/>
<path d="" fill="#4A7EC7" transform="translate(0,0)"/>
<path d="" fill="#89A4CF" transform="translate(0,0)"/>
<path d="" fill="#2AA8FB" transform="translate(0,0)"/>
<path d="" fill="#A5E7FF" transform="translate(0,0)"/>
<path d="" fill="#24AAFF" transform="translate(0,0)"/>
<path d="" fill="#A2EAFB" transform="translate(0,0)"/>
<path d="" fill="#24ABFD" transform="translate(0,0)"/>
<path d="" fill="#9FEAF7" transform="translate(0,0)"/>
<path d="" fill="#2AA9F3" transform="translate(0,0)"/>
<path d="" fill="#A1E5F5" transform="translate(0,0)"/>
<path d="" fill="#29AAF3" transform="translate(0,0)"/>
<path d="" fill="#A3E4F7" transform="translate(0,0)"/>
<path d="" fill="#1EACFA" transform="translate(0,0)"/>
<path d="" fill="#9AE7F8" transform="translate(0,0)"/>
<path d="" fill="#19B0FF" transform="translate(0,0)"/>
<path d="" fill="#97E8F8" transform="translate(0,0)"/>
<path d="" fill="#1EAFF9" transform="translate(0,0)"/>
<path d="" fill="#96E5F8" transform="translate(0,0)"/>
</svg>
